<svg xmlns="http://www.w3.org/2000/svg" version="1.1" viewBox="-5.0 -10.0 110.0 135.0">
 <path d="m88.871 46.016c-0.074219-0.15234-0.23828-0.23828-0.40625-0.21875-0.15234 0.019531-0.27734 0.12109-0.33203 0.26172-0.023437 0.035156-0.085937 0.10547-0.13672 0.16406-0.11328 0.13281-0.26172 0.32031-0.41406 0.53906-1.9023-0.73828-3.293-2.0625-4.8867-3.5938-1.7539-1.6875-3.7383-3.5977-6.8359-5.0078-4.6523-2.1211-6.3281-3.9297-8.4492-6.2227-0.54297-0.58594-1.1055-1.1953-1.7578-1.8555-3.1133-3.1484-5.293-4.6406-7.0703-4.8477-1.7461-0.20312-2.9766 0.8125-4.3984 1.9883-0.59766 0.49219-1.2109 1-1.9414 1.4922-2.4883 1.6875-3.8086 3.25-4.8828 4.6562-1.4102-0.73438-2.4844-1.918-3.0664-2.5664-0.17188-0.19141-0.29297-0.32813-0.39062-0.41406-4.8633-4.375-5.375-4.4414-6.8984-4.6445-0.125-0.015625-0.25781-0.035156-0.40234-0.054688-1.3594-0.20312-2.3086 0.59766-3.7422 1.8125-1.3398 1.1367-3.1797 2.6914-6.3164 4.3047-1.9258 0.98828-4.5039 3.0156-7.8828 6.1953-1.8945 1.7852-3.7344 2.5625-4.832 3.0312-0.15234 0.066406-0.27344 0.11719-0.39453 0.17188-0.22656-0.84375-0.53125-1.1523-0.78906-1.2969-0.30469-0.17188-0.66016-0.15625-0.99609 0.050782-0.85156 0.51562-1.543 2.2148-1.5078 3.2422 0.007813 0.22266 0.19531 0.39844 0.41406 0.39062 0.22266-0.007812 0.39844-0.19141 0.39062-0.41406-0.027343-0.82813 0.58203-2.1992 1.1211-2.5273 0.11719-0.070313 0.16406-0.046875 0.18359-0.035156 0.074219 0.042968 0.32812 0.25781 0.51172 1.2734 0 0.003906 0 0.007813 0.003906 0.011719 0.11328 0.62891 0.19922 1.5586 0.19922 2.9375 0 0.19531 0.027344 0.32812 0.054687 0.45312 0.03125 0.14453 0.0625 0.28906 0.0625 0.60156 0 0.13672 0.070313 0.26562 0.1875 0.33984 0.11719 0.074219 0.26172 0.082031 0.38672 0.023437 0.40625-0.19141 0.72266-0.77734 1.0547-1.3945 0.078124-0.14844 0.17969-0.33203 0.27344-0.49219 0.20703 0.60547 0.32812 1.375 0.44531 2.1211 0.085937 0.55859 0.16797 1.0859 0.28516 1.5391 0.042968 0.17188 0.19922 0.29688 0.37891 0.30078 0.18359 0.003907 0.33984-0.10938 0.39453-0.27734 0.32031-0.99609 0.76172-2.1719 1.043-2.75 0.45703 0.67578 0.79297 1.6406 0.79297 2.3594 0 0.19922 0.14453 0.36719 0.33984 0.39844 0.19531 0.03125 0.38672-0.085938 0.44531-0.27734 0.10156-0.32422 0.19141-0.68359 0.28906-1.0664 0.14844-0.60156 0.31641-1.2539 0.53516-1.7812 0.13281 0.29297 0.25391 0.61328 0.27734 0.76953 0.023437 0.14453 0.12109 0.26562 0.25781 0.31641 0.13672 0.050781 0.29297 0.023437 0.40234-0.070313 0.35547-0.30469 0.63281-0.65625 0.87891-0.96875 0.0625-0.078125 0.12109-0.15234 0.17969-0.22656 0.76172 2.0469 0.76172 2.5664 0.76172 4.9062v0.21875c0 0.17188 0.10938 0.32813 0.27344 0.38281 0.16406 0.054687 0.34375-0.003906 0.44922-0.14062 0.097657-0.13281 0.18359-0.26562 0.26953-0.39453 0.17578-0.26953 0.32812-0.5 0.53125-0.66016 0.66797 1.1406 0.75781 1.4219 0.75781 2.9609 0 0.17969 0.11719 0.33594 0.28906 0.38672s0.35547-0.019531 0.45312-0.16797c0.066406-0.10156 0.14453-0.23828 0.23438-0.39453 0.18359-0.31641 0.50781-0.875 0.80859-1.2266 0.0625 0.25 0.10938 0.47266 0.14844 0.6875 0 0.023438 0.007812 0.046875 0.011719 0.066406 0.13672 0.78516 0.14062 1.4258 0.14062 2.5312 0 0.16797 0.10547 0.31641 0.26172 0.375 0.15625 0.058594 0.33203 0.015626 0.44531-0.10937 0.19141-0.21484 0.84766-0.75781 1.2266-1.0156 0.21094 0.25391 0.52344 0.64844 0.59375 0.84766 0.042968 0.12109 0.14062 0.21484 0.26172 0.25391s0.25781 0.015625 0.35938-0.0625c0.078125-0.058594 0.16016-0.12109 0.24219-0.18359 0.40234-0.30859 0.81641-0.62891 1.2461-0.71094 0.94922 1.3828 1.0742 1.7656 1.082 1.8594 0 0.20312 0.14844 0.37109 0.34766 0.39844s0.38672-0.097656 0.44141-0.28906c0.070313-0.24609 0.36719-0.66016 0.58984-0.89844 0.51953 0.74219 1.3672 2.3555 1.3672 2.8359 0 0.16406 0.10156 0.3125 0.25391 0.375s0.32812 0.023437 0.44141-0.097656c0.11328-0.11719 0.20703-0.22656 0.28906-0.32422 0.23828-0.27344 0.37891-0.4375 0.69922-0.58203 0.38281 0.53125 0.71094 1.5391 0.71094 2.0938 0 0.21484 0.16797 0.39062 0.38281 0.40234 0.21484 0.011719 0.39844-0.14844 0.42188-0.36328 0.019532-0.19531 0.16016-0.40625 0.28906-0.53125 0.21094 0.5 0.26953 1.1914 0.32812 1.8164 0.015625 0.16406 0.027344 0.32422 0.046875 0.47266 0.019531 0.16797 0.14062 0.30859 0.30859 0.34766 0.16797 0.039062 0.33984-0.03125 0.42969-0.17578 0.52344-0.81641 1.0312-1.3906 1.4648-1.6602 0.37109 1.1914 0.37109 1.9688 0.36719 3.2773v0.38672c0 0.125 0.058594 0.24609 0.16016 0.32031 0.10156 0.078125 0.23047 0.10156 0.35156 0.066406 0.25781-0.070312 0.79688 0.46484 0.96094 0.71094 0 0.43359 0.14844 0.83594 0.45312 1.1875 1.5664 1.8164 7.1523 2.2227 12.551 2.6211 4.1562 0.30469 9.3242 0.68359 9.7578 1.8203 0.26953 0.70312-0.48047 1.1094-2.1328 1.8086-1.5977 0.67578-3.4102 1.4414-3.582 3.1641-0.023437 0.22266 0.14063 0.41797 0.35938 0.44141 0.011718 0 0.027343 0.003906 0.039062 0.003906 0.20312 0 0.37891-0.15625 0.39844-0.36328 0.125-1.2461 1.6328-1.8867 3.0938-2.5039 1.5469-0.65234 3.1484-1.332 2.5742-2.8359-0.58594-1.5391-4.3555-1.8906-10.453-2.3359-4.9922-0.36719-10.652-0.78125-12-2.3438-0.16016-0.1875-0.23047-0.38672-0.24609-0.60156l0.49219-0.41406c0.74609 0.74609 2.8359 1.6172 9.5703 2.0234 4.4609 0.26953 9.4297 0.23438 12.812 0.16016 6.5234-0.14453 9.4375 1.8516 9.9922 3.7695 0.32422 1.1172-0.22656 1.4141-1.4961 1.9766-1.0625 0.47266-2.3867 1.0586-2.9258 2.6133-0.074219 0.21094 0.039062 0.4375 0.25 0.51172 0.042969 0.015625 0.089844 0.023437 0.13281 0.023437 0.16797 0 0.32422-0.10547 0.37891-0.26953 0.42578-1.2266 1.4766-1.6914 2.4922-2.1406 1.1602-0.51562 2.4766-1.0977 1.9453-2.9375-0.30859-1.0703-2.0078-4.5391-10.785-4.3477-12.016 0.26562-20.188-0.46094-21.742-1.9023l0.52344-0.44141c0.68359 0.125 0.98438 0.20703 1.5703 0.41016 0.12109 0.042969 0.25781 0.023438 0.36719-0.050781 0.10547-0.074219 0.16797-0.19922 0.16797-0.32812 0-0.625-0.042969-1.0625-0.074219-1.4102-0.054687-0.5625-0.085937-0.92188 0.082032-1.6562 0.5625 0.60156 0.92578 1.2109 1.082 1.8203 0.042969 0.17578 0.19922 0.29688 0.37891 0.30078 0.17969 0.003906 0.33984-0.10938 0.39453-0.28125 0.19141-0.61719 0.76172-1.4492 1.3281-1.3984 0.11328 0.011719 0.22266-0.027344 0.30469-0.10547s0.12891-0.18359 0.12891-0.29688c0-0.46094 0.125-1.5391 0.27344-2.1953 0.52344 0.6875 1.2109 1.8164 1.3633 2.2578 0.0625 0.1875 0.25391 0.29688 0.44531 0.26562 0.19531-0.03125 0.33594-0.19922 0.33594-0.39844 0-0.53516 0.09375-0.72656 0.21875-0.96875 0.039062-0.082032 0.082031-0.16797 0.125-0.26562 0.44531 0.10156 0.73438 0.33203 0.97266 0.52734 0.15234 0.12109 0.28125 0.23047 0.4375 0.28125 0.11719 0.039063 0.24609 0.023438 0.35156-0.042968s0.17188-0.17969 0.17969-0.30469l0.007813-0.11328c0.035156-0.46875 0.14453-1.5391 0.41797-1.7344 0.65234 0.019531 1.0273 0.37891 1.5 0.82812 0.074218 0.070313 0.14844 0.14062 0.22266 0.21094 0.11328 0.10547 0.28125 0.13672 0.42578 0.078126 0.14453-0.058594 0.24219-0.19531 0.25-0.35156 0.015625-0.29297 0.14844-1.0547 0.39844-2.2656 1.1016 0.875 1.2617 1.1992 1.2852 1.2891-0.007813 0.20703 0.14453 0.38672 0.35156 0.41406 0.21484 0.027344 0.41016-0.11719 0.44531-0.32812 0.089844-0.51562 0.33594-1.3242 0.54297-1.7109 0.10156 0.10156 0.19531 0.19141 0.27734 0.26953 0.39453 0.37891 0.57422 0.55078 0.78906 1.168 0.058593 0.16406 0.21484 0.27734 0.38672 0.26953 0.17578-0.003906 0.32812-0.11719 0.37891-0.28516 0.042968-0.14453 0.097656-0.33594 0.15625-0.55469 0.097656-0.36719 0.22266-0.82422 0.35156-1.1875 0.09375 0.082031 0.19922 0.17188 0.3125 0.26562 0.48828 0.42188 1.1602 0.99609 1.2148 1.0469 0.12109 0.11328 0.30469 0.14062 0.45312 0.066406 0.15234-0.074218 0.23828-0.23438 0.22266-0.40234-0.0625-0.60547-0.14062-1.0703-0.21094-1.4766-0.15234-0.87109-0.24219-1.3945 0.011718-2.375 0.25781 0.39453 0.58594 0.89062 0.89453 1.3477 1.3477 2.0117 1.375 2.0195 1.5742 2.0625 0.12109 0.027344 0.24609 0 0.33984-0.078125 0.097656-0.078125 0.15234-0.19141 0.15234-0.31641 0-0.21484 0.12891-1.2734 0.24219-1.9492 0.10937 0.11719 0.22656 0.24219 0.33594 0.36328 0.41406 0.45312 0.76953 0.84375 1.1094 0.96094 0.125 0.042969 0.25781 0.023437 0.36328-0.050781 0.10547-0.074219 0.16797-0.19922 0.16797-0.32812 0-0.48047 0.0625-0.89062 0.11719-1.25 0.019531-0.14062 0.042968-0.27734 0.058593-0.41406 0.32422 0.027344 0.69531 0.089844 1.0039 0.17188 0.10547 0.027344 0.21875 0.011719 0.3125-0.046875s0.16016-0.15234 0.17969-0.25781c0.003906-0.011719 0.15625-0.76172 0.25781-1.3281 0.48437 0.38672 1.2461 1.3398 1.3984 1.9023 0.039063 0.14844 0.16406 0.26563 0.31641 0.29297 0.15234 0.027344 0.30859-0.035156 0.39844-0.16406 0.054687-0.078125 0.10547-0.14844 0.15625-0.21875 0.5-0.71484 0.66797-0.95703 1.5625-0.95703 0.22266 0 0.40234-0.17969 0.40234-0.40234 0-0.14062 0.035157-0.64062 0.066407-1.0547 0.55859 0.35938 0.59766 0.41797 0.88281 0.85547 0.09375 0.14062 0.20703 0.31641 0.36328 0.54297 0.10156 0.14453 0.28125 0.21094 0.45313 0.15625 0.16797-0.050782 0.28516-0.20703 0.28516-0.38281 0-0.31641 0.015625-0.58984 0.03125-0.85547 0.003906-0.046874 0.003906-0.097656 0.007812-0.14453 0.1875 0.13281 0.42578 0.32031 0.72266 0.57422 0.054688 0.046875 0.09375 0.082031 0.17188 0.10547 0.12109 0.042969 0.25781 0.023437 0.36328-0.054688 0.10547-0.074219 0.16797-0.19922 0.16797-0.32812 0-1.1016 0.14062-1.4531 0.33984-1.9414 0.054688-0.13281 0.10938-0.27344 0.16797-0.4375 0.44922 0.49609 1.0703 1.3516 1.1445 1.6328 0.003907 0.21094 0.17188 0.38281 0.38672 0.39453 0.21484 0.007812 0.39844-0.15625 0.41797-0.37109v-0.03125c0-0.64062 0.007812-0.66797 0.0625-0.92578 0.007812-0.035157 0.015625-0.070313 0.023437-0.10938 0.17188 0.074218 0.28516 0.19141 0.42969 0.34375 0.11719 0.12109 0.25391 0.26172 0.43359 0.38281 0.10937 0.074219 0.25 0.089844 0.37109 0.042969 0.125-0.046875 0.21484-0.15234 0.24609-0.28516l0.046875-0.22266c0.023438-0.12109 0.050781-0.23437 0.082031-0.34375 0.52344 0.35938 1.1094 0.91406 1.125 1.1328v0.03125c-0.007812 0.21875 0.16016 0.40234 0.37891 0.41406 0.21875 0.011718 0.40625-0.15234 0.42578-0.36719 0-0.023438 0.003906-0.046875 0.003906-0.066406 0.050781-1.4336 0.57422-2.2578 0.96484-2.75 0.54297 1.375 0.625 2.7617 0.625 4.0703 0 0.22266 0.17969 0.40234 0.40234 0.40234 0.22266 0 0.40234-0.17969 0.40234-0.40234 0-1.5977-0.11719-3.3125-0.97656-5.0312zm-63.141 4.6719c-0.10938-0.81641-0.37891-1.3047-1-2.3594-0.097657-0.16406-0.29688-0.23828-0.47656-0.17578-0.31641 0.10938-0.55078 0.28516-0.74609 0.48828-0.019531-1.7812-0.14844-2.4609-1.0312-4.7578-0.042968-0.11328-0.13672-0.20312-0.25781-0.23828-0.11719-0.035156-0.24609-0.015625-0.34766 0.050781-0.26562 0.17969-0.49609 0.47266-0.74219 0.78516-0.10547 0.13672-0.21484 0.27344-0.33203 0.40625-0.16797-0.41406-0.39062-0.85938-0.53516-1.0391-0.078125-0.097656-0.19531-0.15625-0.32031-0.15234-0.125 0-0.24219 0.0625-0.31641 0.16406-0.39453 0.53125-0.64453 1.3125-0.84766 2.082-0.23828-0.60547-0.57422-1.1719-0.95703-1.582-0.10937-0.11719-0.27344-0.15625-0.42578-0.10547-0.13281 0.046875-0.44531 0.15625-1.1641 2.0938-0.16406-1.0625-0.33984-2.1641-0.77734-2.9219-0.097656-0.16797-0.29688-0.24219-0.48047-0.17969-0.34766 0.12109-0.58203 0.52734-0.96094 1.2344-0.0625 0.11719-0.14453 0.26953-0.23047 0.42188v-0.066406c0-1.2188-0.066406-2.1289-0.16797-2.8164 0.14453-0.070312 0.33203-0.15234 0.54688-0.24219 1.1484-0.48828 3.0664-1.3008 5.0664-3.1836 3.3242-3.1289 5.8398-5.1133 7.6992-6.0664 3.2227-1.6523 5.1016-3.2461 6.4727-4.4062 1.3555-1.1484 2.1016-1.7812 3.1016-1.6289 0.14844 0.023437 0.28516 0.039062 0.41406 0.058593 1.3359 0.17969 1.7852 0.23828 6.4648 4.4453 0.0625 0.054687 0.18359 0.19531 0.32812 0.35156 0.60156 0.67188 1.6914 1.8828 3.1719 2.6875-0.99609 1.3242-1.9531 2.5742-3.7617 3.75-3.0352 1.9766-5.0898 4.0586-7.0781 6.0703-2.3711 2.3984-4.6328 4.6719-8.4258 6.8125-0.058593-0.25391-0.12891-0.52344-0.21484-0.82812-0.03125-0.10547-0.10156-0.19531-0.20313-0.24609-0.097656-0.050781-0.21094-0.058594-0.31641-0.023438-0.41406 0.14453-0.78516 0.57813-1.1406 1.1211zm61.059-2.1133c-0.54687-0.52734-1.2344-0.91797-1.2461-0.92188-0.17578-0.09375-0.39062-0.042969-0.51172 0.11719-0.125 0.16797-0.20312 0.34766-0.26172 0.52734-0.23828-0.23047-0.5625-0.46094-1.1328-0.51172-0.20703-0.019531-0.39453 0.125-0.43359 0.32812-0.019531 0.10938-0.039063 0.19922-0.054687 0.27344-0.45703-0.62891-1.0234-1.2422-1.3008-1.3789-0.10938-0.054687-0.23828-0.058593-0.34766-0.003906-0.10938 0.050782-0.19141 0.15234-0.22266 0.26953-0.10156 0.41797-0.21094 0.6875-0.31641 0.94922-0.16016 0.39453-0.30078 0.75-0.36328 1.4258-0.35547-0.26953-0.64844-0.45313-0.88281-0.54688-0.125-0.050781-0.26562-0.035156-0.375 0.039063s-0.17969 0.19922-0.17969 0.33594c0 0.16406-0.003906 0.3125-0.011718 0.46094-0.21875-0.26172-0.45313-0.40625-1.1016-0.81641l-0.25781-0.16016c-0.12891-0.082032-0.29297-0.082032-0.42578-0.003907-0.11719 0.070313-0.1875 0.19531-0.19141 0.32812 0 0.023438-0.007813 0.10156-0.015625 0.21094-0.035156 0.4375-0.066406 0.86719-0.085938 1.1758-0.82812 0.082031-1.2148 0.4375-1.5898 0.93359-0.49609-0.85938-1.4375-1.9766-2.1719-1.9766h-0.003906c-0.11328 0-0.21875 0.046875-0.29297 0.13281-0.066407 0.074219-0.10156 0.16797-0.10547 0.26562-0.015625 0.14062-0.15625 0.86719-0.25 1.3398-0.40234-0.078126-0.82812-0.12109-1.1641-0.12109-0.22266 0-0.40234 0.17969-0.40234 0.40234 0 0.20312-0.035156 0.44141-0.078125 0.71484-0.027344 0.17578-0.054688 0.35938-0.078125 0.55859-0.10547-0.10938-0.20703-0.22266-0.28906-0.3125-0.34375-0.37891-0.67188-0.73438-0.96875-0.90625-0.17188-0.097656-0.38672-0.058594-0.51172 0.09375-0.16016 0.19141-0.30078 1.1016-0.39062 1.8594-0.73438-1.0703-1.9141-2.8555-2.043-3.082-0.078125-0.13672-0.23047-0.21484-0.38672-0.19922s-0.28906 0.12109-0.34375 0.26953c-0.60938 1.7578-0.48438 2.4883-0.29297 3.5898 0.019531 0.12109 0.042969 0.25 0.066407 0.38281-0.125-0.10547-0.26563-0.22656-0.42188-0.36328-0.35156-0.30078-0.66016-0.56641-0.72266-0.62109-0.089844-0.078124-0.21094-0.11328-0.33203-0.09375-0.11719 0.019532-0.22266 0.089844-0.28125 0.19531-0.19141 0.32812-0.35938 0.87109-0.50781 1.3906-0.14453-0.1875-0.30859-0.33984-0.5-0.52344-0.15234-0.14844-0.32812-0.31641-0.53906-0.53906-0.10938-0.11719-0.27734-0.16016-0.42578-0.10547-0.46094 0.16016-0.78125 0.91406-0.97266 1.5625-0.32422-0.33594-0.79687-0.73438-1.4414-1.2266l-0.097656-0.074219c-0.12109-0.09375-0.28516-0.10938-0.42188-0.042969-0.11719 0.058594-0.19922 0.17188-0.21875 0.29688-0.003906 0.023438-0.019531 0.085938-0.035156 0.17969-0.13281 0.625-0.29297 1.4102-0.39453 2.0195-0.45703-0.39844-0.98438-0.73828-1.7969-0.72266-0.042968 0-0.085937 0.007812-0.125 0.023437-0.60156 0.20703-0.83203 0.96875-0.94141 1.8594-0.32422-0.23438-0.78906-0.48828-1.4531-0.53516-0.19531-0.015625-0.37109 0.11328-0.41797 0.30078-0.046874 0.1875-0.10937 0.30859-0.17969 0.45312-0.019531 0.042969-0.042969 0.082031-0.0625 0.12891-0.45703-0.77344-1.0781-1.6602-1.4531-1.9922-0.082031-0.070312-0.1875-0.10938-0.29688-0.10156-0.10938 0.007812-0.21094 0.0625-0.27734 0.14453-0.38672 0.46875-0.55859 2.0859-0.60938 2.8398-0.55078 0.12109-1.0078 0.56641-1.3242 1.0547-0.32031-0.61328-0.80469-1.2109-1.4531-1.7852-0.10156-0.09375-0.24609-0.125-0.37891-0.085938-0.13281 0.039063-0.23828 0.14062-0.27734 0.27344-0.41016 1.3594-0.36328 1.8555-0.28906 2.6133 0.023438 0.22656 0.042969 0.47266 0.058594 0.77734-0.38281-0.11328-0.73047-0.1875-1.332-0.29688-0.11719-0.019532-0.23828 0.011718-0.33203 0.089844l-1.6055 1.3516c-0.10156-0.12109-0.23828-0.25391-0.41797-0.40234-0.27734-0.22656-0.51953-0.33984-0.73047-0.39062 0.003906-1.4883 0.003906-2.3867-0.55078-3.9492-0.070313-0.19531-0.27734-0.30859-0.48047-0.25391-0.52344 0.13672-1.0781 0.5625-1.6484 1.2695-0.078126-0.66797-0.20703-1.3516-0.54688-1.8633-0.070312-0.10156-0.17969-0.16797-0.30469-0.17969-0.24609-0.019531-0.49219 0.085937-0.70312 0.25781-0.19922-0.66406-0.53125-1.3477-0.91797-1.7227-0.10938-0.10547-0.26953-0.14062-0.41016-0.089844-0.54688 0.1875-0.82422 0.40234-1.0664 0.66016-0.38672-1.043-1.2422-2.4492-1.6055-2.8359-0.10938-0.11328-0.27344-0.15625-0.42578-0.10547-0.26953 0.09375-0.59766 0.42969-0.86328 0.79297-0.20313-0.36328-0.5-0.83203-0.91797-1.4336-0.042969-0.0625-0.074219-0.10938-0.089844-0.13281-0.074219-0.11328-0.20312-0.18359-0.33594-0.18359-0.71094 0-1.2891 0.40234-1.8008 0.79297-0.17578-0.25781-0.40234-0.53906-0.62109-0.79297l-0.074218-0.085938c-0.10547-0.12891-0.28125-0.17969-0.44141-0.12109-0.24219 0.085937-0.69922 0.41406-1.0938 0.73828-0.007813-0.55469-0.03125-1.0156-0.10547-1.5117 4.0391-2.2422 6.4805-4.6992 8.8359-7.082 1.9609-1.9805 3.9844-4.0312 6.9453-5.9609 1.9609-1.2773 2.9648-2.6133 4.0273-4.0234 1.1836-1.5742 2.4062-3.1992 5.125-5.043 0.75781-0.51562 1.418-1.0586 2-1.5391 1.3867-1.1445 2.3906-1.9727 3.7969-1.8086 1.582 0.18359 3.6133 1.6055 6.5898 4.6133 0.64062 0.64844 1.1992 1.25 1.7383 1.8359 2.1836 2.3594 3.9062 4.2227 8.707 6.4102 2.9688 1.3555 4.9062 3.2148 6.6094 4.8555 1.5586 1.4961 3.0391 2.9102 5.0391 3.7188-0.15234 0.31641-0.29297 0.66797-0.39062 1.1055zm-20.922-5.2617c2.168 3.2188 2.3281 3.6719 2.3086 3.9062-0.011719 0.16797-0.15625 0.29688-0.32031 0.29688h-0.027344c-0.16406-0.011719-0.28906-0.14844-0.29688-0.30859-0.046875-0.16797-0.39844-0.85938-2.1992-3.5352l-0.125-0.18359c-1.0039-1.5-1.3125-3.1016-1.5586-4.3867-0.21094-1.0977-0.37891-1.9688-0.87891-2.2305-2.168-1.1289-2.9141-3.2148-3.4102-4.5938-0.058594-0.16797 0.027344-0.35156 0.19531-0.41016 0.16797-0.058594 0.35156 0.027343 0.41016 0.19531 0.60938 1.6992 1.3047 3.3047 3.1016 4.2422 0.77734 0.40625 0.97266 1.4102 1.2148 2.6797 0.23438 1.2266 0.52734 2.7578 1.4609 4.1484l0.12109 0.18359zm-19.367-0.61719c0 3.4258-1.0078 4.7305-1.8164 5.7773-0.49609 0.64062-0.92578 1.1953-1.0391 2.1367-0.20703 1.6836-0.90625 2.6445-1.7148 3.7578-0.19141 0.26562-0.39063 0.53906-0.59766 0.83984-0.0625 0.089844-0.16406 0.14062-0.26562 0.14062-0.0625 0-0.125-0.019531-0.17969-0.054687-0.14844-0.10156-0.18359-0.30078-0.082031-0.44922 0.21094-0.30469 0.41016-0.58594 0.60547-0.85156 0.78906-1.0859 1.4102-1.9414 1.5977-3.4609 0.13672-1.1172 0.63672-1.7656 1.168-2.4531 0.78906-1.0195 1.6836-2.1758 1.6836-5.3828 0-0.17969 0.14453-0.32031 0.32031-0.32031 0.17969 0 0.32031 0.14453 0.32031 0.32031zm-18.84-4.1484c-0.089844 0.86719-0.21094 2.0586-1.9648 3.4883-0.058593 0.046875-0.13281 0.074219-0.20312 0.074219-0.09375 0-0.1875-0.039063-0.25-0.11719-0.11328-0.13672-0.09375-0.33984 0.046874-0.45313 1.5469-1.2617 1.6484-2.2539 1.7305-3.0547 0.054688-0.53125 0.10547-1.0312 0.55469-1.4297 1.1641-1.0312 1.457-1.3555 1.6875-1.6133 0.1875-0.21094 0.35156-0.39062 0.87891-0.84766 0.12109-0.10547 0.28516-0.17969 0.47656-0.27344 0.51172-0.24219 1.207-0.57422 1.543-1.5703 0.058594-0.16797 0.23828-0.25781 0.40625-0.20312 0.16797 0.058594 0.25781 0.23828 0.20312 0.40625-0.42188 1.2539-1.3359 1.6875-1.8789 1.9453-0.13672 0.0625-0.27734 0.12891-0.32812 0.17578-0.49219 0.42578-0.63672 0.58594-0.82031 0.78906-0.24219 0.26953-0.54688 0.60938-1.7422 1.6641-0.25 0.22266-0.28906 0.5-0.34375 1.0156zm8.4375 28.438c0.10547 0.14453 0.070313 0.34375-0.074218 0.44922-0.125 0.089844-0.21484 0.19531-0.34375 0.34375-0.070313 0.078125-0.14453 0.16406-0.23438 0.26172-0.0625 0.066407-0.14844 0.10156-0.23437 0.10156-0.039063 0-0.078126-0.007813-0.11719-0.023437-0.12109-0.046876-0.20312-0.16797-0.20312-0.30078 0-0.38281-0.67578-1.6758-1.0938-2.2695-0.17969 0.19141-0.41797 0.51953-0.47266 0.71875-0.042969 0.15625-0.19531 0.25391-0.35547 0.23047-0.16016-0.023438-0.27734-0.15625-0.27734-0.32031-0.007812-0.074219-0.10547-0.37891-0.86719-1.4883-0.34375 0.0625-0.67578 0.32031-1 0.57031-0.066407 0.050782-0.12891 0.10156-0.19531 0.14844-0.082031 0.0625-0.1875 0.078125-0.28906 0.050781-0.097656-0.03125-0.17578-0.10547-0.21094-0.20312-0.054687-0.16016-0.30469-0.47266-0.47266-0.67969-0.30469 0.20703-0.83203 0.64062-0.98438 0.8125-0.089844 0.10156-0.23047 0.13672-0.35547 0.089843-0.125-0.046874-0.20703-0.16797-0.20703-0.30078 0-1.1484 0-1.668-0.24219-2.6289-0.24219 0.28125-0.5 0.72656-0.64844 0.98438-0.074219 0.125-0.13672 0.23438-0.1875 0.31641-0.078125 0.12109-0.22656 0.17578-0.36328 0.13281-0.13672-0.039063-0.23047-0.16797-0.23047-0.30859 0-1.2344-0.074219-1.4609-0.60938-2.375-0.43359 0.3125-0.61719 0.95703-0.64062 1.043-0.03125 0.11719-0.12891 0.21484-0.25 0.23828-0.11719 0.023437-0.24219-0.023437-0.31641-0.11719-0.082032-0.10547-0.20312-0.26172-0.67188-3.957 0 0.003906-0.003907 0.007813-0.003907 0.011719-0.22266 0.71484-0.44922 1.4492-0.80078 1.75-0.089843 0.078125-0.21094 0.097656-0.32031 0.058594-0.10938-0.039063-0.1875-0.13672-0.20703-0.25391-0.082032-0.56641-0.20703-1.3008-0.3125-1.8438-0.13281 0.37109-0.23828 0.79688-0.33984 1.1914-0.078125 0.30469-0.14844 0.59766-0.23047 0.85547-0.046875 0.15234-0.19922 0.24609-0.35547 0.22266-0.15625-0.023438-0.27344-0.16016-0.27344-0.31641 0-0.57422-0.26953-1.3477-0.63281-1.8906-0.22656 0.46094-0.57812 1.4062-0.83594 2.2031-0.042969 0.13672-0.17188 0.22656-0.31641 0.22266-0.14453-0.003906-0.26562-0.10156-0.30078-0.24219-0.09375-0.36328-0.16016-0.78516-0.23047-1.2344-0.09375-0.60156-0.1875-1.2148-0.35547-1.6992-0.078125 0.12891-0.15625 0.27734-0.21875 0.39453-0.26562 0.49609-0.51953 0.96484-0.84375 1.1172-0.10156 0.046875-0.21484 0.039063-0.30859-0.019531s-0.14844-0.16016-0.14844-0.27344c0-1.6484-0.25-3.4453-0.52734-4.043-0.30469 0.39062-0.84766 1.1484-1.207 2-0.070313 0.16406-0.25781 0.24219-0.42188 0.17188-0.16406-0.070313-0.24219-0.25781-0.17187-0.42188 0.55859-1.3281 1.5-2.4062 1.5391-2.4531 0.09375-0.10547 0.24219-0.13672 0.37109-0.082031 0.76562 0.33203 0.98047 2.5859 1.0391 3.9062 0.042969-0.078126 0.082032-0.15234 0.11719-0.21484 0.30469-0.56641 0.49219-0.89062 0.76953-0.98828 0.14453-0.050781 0.30859 0.007813 0.38281 0.14453 0.35156 0.60938 0.48828 1.4883 0.62109 2.3398 0.57422-1.5547 0.82422-1.6406 0.92969-1.6758 0.12109-0.042968 0.25391-0.007812 0.33984 0.082032 0.30859 0.32812 0.57813 0.78125 0.76563 1.2656 0.16406-0.61719 0.36328-1.2422 0.67969-1.668 0.058594-0.082032 0.15234-0.12891 0.25391-0.12891 0.10156 0.003906 0.19531 0.042968 0.25781 0.12109 0.13672 0.17188 0.30469 1.0039 0.45312 1.8945 0.082031-0.23047 0.15625-0.47656 0.22656-0.69531 0.23438-0.75781 0.36719-1.1602 0.60938-1.3242 0.09375-0.0625 0.21094-0.074219 0.31641-0.027343 0.10156 0.046874 0.17188 0.14453 0.1875 0.25391 0.26172 2.1523 0.43359 3.3555 0.54297 4.0312 0.19922-0.28516 0.47656-0.55859 0.86328-0.69141 0.14453-0.050782 0.30469 0.007812 0.38281 0.14062 0.5 0.84375 0.71484 1.2344 0.80078 1.8906 0.28516-0.4375 0.58203-0.78516 0.91406-0.89844 0.082031-0.027344 0.17578-0.023438 0.25391 0.019531 0.078125 0.039063 0.13672 0.11328 0.16016 0.19922 0.3125 1.0938 0.375 1.668 0.38672 2.543 0.31641-0.26172 0.68359-0.52344 0.87891-0.59375 0.125-0.042969 0.26562-0.003907 0.35156 0.097656l0.058593 0.070313c0.17188 0.20703 0.35547 0.42969 0.49609 0.63672 0.41016-0.3125 0.875-0.63672 1.4414-0.63672 0.10938 0 0.21094 0.054687 0.26953 0.14844 0.011718 0.019531 0.039062 0.054687 0.074218 0.10547 0.33203 0.48047 0.57031 0.85547 0.73438 1.1484 0.21094-0.28906 0.47656-0.55859 0.69141-0.63281 0.12109-0.042969 0.25391-0.007813 0.33984 0.082031 0.28906 0.30859 0.97656 1.4375 1.2852 2.2695 0.082031-0.085937 0.16797-0.16406 0.27344-0.23828 0.14453-0.10547 0.34375-0.070312 0.44922 0.074219zm47.766-10.941c0.69531 1.3867 0.78906 2.7734 0.78906 4.0625 0 0.17969-0.14453 0.32031-0.32031 0.32031-0.17969 0-0.32031-0.14453-0.32031-0.32031 0-1.0586-0.066407-2.1797-0.50781-3.293-0.30859 0.39062-0.74219 1.0703-0.78516 2.2266 0 0.019532 0 0.035157-0.003906 0.054688-0.015625 0.17188-0.16016 0.30469-0.33984 0.29297-0.17578-0.011719-0.30859-0.15625-0.30469-0.33203v-0.027344c-0.011718-0.17969-0.48828-0.62891-0.91016-0.91797-0.027344 0.085937-0.046875 0.18359-0.066406 0.28125-0.011719 0.0625-0.023438 0.12109-0.039062 0.18359-0.023438 0.10156-0.097657 0.1875-0.19531 0.22656-0.097656 0.039063-0.21094 0.027344-0.29688-0.035156-0.14453-0.097656-0.25391-0.21094-0.34766-0.30859-0.11719-0.12109-0.21094-0.21875-0.35156-0.27734-0.007812 0.035156-0.015625 0.066406-0.019531 0.09375-0.046875 0.20703-0.050781 0.23047-0.050781 0.74609v0.023438c-0.011719 0.17188-0.16016 0.30078-0.33203 0.29688-0.17188-0.007813-0.30469-0.14453-0.30859-0.31641-0.058594-0.22656-0.5625-0.92188-0.92578-1.3242-0.046874 0.13281-0.09375 0.25-0.13672 0.35938-0.16016 0.39453-0.27344 0.67969-0.27344 1.5703 0 0.10547-0.050781 0.20312-0.13281 0.26172-0.085938 0.058594-0.19141 0.078125-0.29297 0.042969-0.058594-0.019532-0.089844-0.046875-0.13672-0.085938-0.24219-0.20703-0.4375-0.35938-0.58594-0.46875-0.003907 0.042969-0.003907 0.082032-0.007813 0.125-0.011718 0.21484-0.023437 0.4375-0.023437 0.69141 0 0.14063-0.09375 0.26563-0.22656 0.30859-0.13672 0.042969-0.28125-0.007812-0.35938-0.125-0.125-0.18359-0.21875-0.32422-0.29297-0.4375-0.23047-0.35547-0.26172-0.40234-0.71875-0.69531-0.023437 0.33594-0.054687 0.74219-0.054687 0.85938 0 0.17969-0.14453 0.32031-0.32031 0.32031-0.72656 0-0.85937 0.19531-1.2656 0.77344-0.039063 0.058593-0.082032 0.11719-0.125 0.17969-0.070313 0.10156-0.19531 0.15234-0.32031 0.12891-0.12109-0.023437-0.22266-0.11328-0.25391-0.23437-0.125-0.46094-0.74219-1.2344-1.1328-1.543-0.082031 0.45703-0.20703 1.0664-0.21094 1.0781-0.019531 0.085937-0.070313 0.16016-0.14453 0.20703-0.074219 0.046875-0.16406 0.058594-0.25 0.039063-0.25391-0.066407-0.55078-0.11328-0.8125-0.13672-0.011719 0.10938-0.03125 0.22266-0.046876 0.33594-0.042968 0.29297-0.09375 0.62109-0.09375 1.0078 0 0.10547-0.050781 0.20312-0.13672 0.26172-0.085938 0.058593-0.19531 0.074218-0.29297 0.042968-0.27344-0.09375-0.55859-0.41016-0.89453-0.77344-0.089844-0.097657-0.18359-0.20312-0.27734-0.29688-0.089844 0.54688-0.19531 1.4062-0.19531 1.582 0 0.097656-0.042969 0.19141-0.12109 0.25-0.058594 0.046875-0.12891 0.070313-0.19922 0.070313-0.023437 0-0.046875-0.003907-0.070313-0.007813-0.15625-0.035156-0.19922-0.046875-1.6484-2.2344-0.097656-0.14844-0.058594-0.34766 0.089844-0.44531 0.14844-0.097657 0.34766-0.058594 0.44531 0.089843 0.40234 0.60547 0.71875 1.0742 0.94922 1.4102 0.074219-0.61328 0.18359-1.3555 0.3125-1.5117 0.10156-0.12109 0.27344-0.15234 0.40625-0.074219 0.24219 0.13672 0.50391 0.42578 0.78125 0.73047 0.066406 0.074219 0.15234 0.16797 0.23828 0.25781 0.019531-0.16406 0.042969-0.31641 0.0625-0.45703 0.035157-0.22266 0.0625-0.41406 0.0625-0.57812 0-0.17969 0.14453-0.32031 0.32031-0.32031 0.26953 0 0.61719 0.039063 0.94141 0.097657 0.074219-0.38281 0.1875-0.97266 0.19922-1.0859 0-0.078125 0.03125-0.15234 0.082031-0.21094 0.058594-0.066406 0.14453-0.10547 0.23438-0.10547h0.003906c0.59375 0 1.3516 0.90625 1.7539 1.5977 0.30078-0.40234 0.61328-0.69141 1.2852-0.75391 0.015625-0.24609 0.039062-0.59375 0.066406-0.94922 0.007812-0.089844 0.011719-0.14844 0.011719-0.16797 0.003906-0.10547 0.0625-0.20703 0.15625-0.26172 0.10547-0.0625 0.23438-0.0625 0.33984 0.003906l0.20703 0.12891c0.53125 0.33203 0.71875 0.45312 0.89453 0.66406 0.003906-0.12109 0.007813-0.24609 0.007813-0.38281 0-0.10547 0.054687-0.20703 0.14062-0.26562 0.089844-0.058594 0.20313-0.070312 0.30078-0.03125 0.1875 0.078125 0.42578 0.22656 0.71484 0.44531 0.050781-0.54688 0.16406-0.83594 0.29297-1.1523 0.085938-0.21094 0.17188-0.42969 0.25391-0.76562 0.023438-0.09375 0.089844-0.17578 0.17578-0.21484 0.089844-0.042968 0.19141-0.039062 0.28125 0.003906 0.22266 0.11328 0.68359 0.60938 1.0508 1.1172 0.011719-0.0625 0.027344-0.13672 0.042969-0.22656 0.03125-0.16406 0.17969-0.27734 0.34766-0.26172 0.46484 0.042969 0.72266 0.23047 0.91797 0.41797 0.046875-0.14844 0.10938-0.29297 0.21094-0.42969 0.09375-0.12891 0.26953-0.16797 0.40625-0.09375 0.007813 0.003906 0.56641 0.32031 1.0078 0.74609 0.22266-1.0117 0.71094-1.5898 0.97656-1.9023 0.039063-0.046875 0.089844-0.10547 0.10938-0.13281 0.042969-0.11328 0.14453-0.19531 0.26562-0.21094 0.13672-0.015625 0.26562 0.054688 0.32422 0.17578z"/>
<text x="0.0" y="117.5" font-size="5.0" font-weight="bold" font-family="Arbeit Regular, Helvetica, Arial-Unicode, Arial, Sans-serif" fill="#000000">Created by Ar2ar</text><text x="0.0" y="122.5" font-size="5.0" font-weight="bold" font-family="Arbeit Regular, Helvetica, Arial-Unicode, Arial, Sans-serif" fill="#000000">from Noun Project</text></svg>