<svg xmlns="http://www.w3.org/2000/svg" xmlns:xlink="http://www.w3.org/1999/xlink" version="1.1" x="0px" y="0px" viewBox="0 0 100 125" enable-background="new 0 0 100 100" xml:space="preserve"><g><g><g><path fill="none" stroke="#000000" stroke-linecap="round" stroke-linejoin="round" d="M22.008,26.162     c0.105,0.311,0.174,0.634,0.188,0.977c0.349,0.237,0.58,0.467,0.719,0.691"/><path fill="none" stroke="#000000" stroke-linecap="round" stroke-linejoin="round" stroke-dasharray="1.9908,1.9908" d="     M22.461,29.613c-0.646,0.719-1.554,1.399-1.502,2.095c0.031,0.403,0.736,0.493,0.882,0.951c0.146,0.458,0.03,1.336-0.045,1.805     c-0.059,0.372-0.147,0.77-0.291,1.144"/><path fill="none" stroke="#000000" stroke-linecap="round" stroke-linejoin="round" d="M21.012,36.461     c-0.213,0.246-0.48,0.444-0.816,0.563c-0.095,0.32-0.196,0.638-0.298,0.955"/><path fill="none" stroke="#000000" stroke-linecap="round" stroke-linejoin="round" stroke-dasharray="2.118,2.118" d="     M19.265,40.001c-0.353,1.252-0.586,2.514-0.44,3.841c0.222,2.024,1.529,3.979,1.347,5.992c-0.122,1.34-0.064,1.84,0.12,3.045     c0.231,1.513-0.35,1.438-1.007,2.622c-0.421,0.758-0.844,2.633-0.625,3.981"/><path fill="none" stroke="#000000" stroke-linecap="round" stroke-linejoin="round" d="M19.019,60.469     c0.193,0.276,0.461,0.461,0.823,0.509c0.108-0.292,0.132-0.643,0.151-0.984"/><path fill="none" stroke="#000000" stroke-linecap="round" stroke-linejoin="round" stroke-dasharray="2.014,2.014" d="     M20.979,58.618c0.059,0.009,0.122,0.021,0.188,0.037c0.911,0.219,0.836,1.379,1.155,1.845c0.509,0.744,0.714,0.447,1.012,1.334     c0.371,1.106,0.054,3.203,0,4.375c-0.137,2.983-0.357,5.926-0.496,8.963c-0.124,2.705-0.023,5.503-0.17,8.329     c-0.086,1.661-0.32,3.604-0.436,5.329"/><path fill="none" stroke="#000000" stroke-linecap="round" stroke-linejoin="round" d="M22.178,89.834     c-0.012,0.35-0.017,0.684-0.011,0.999l1,0.015"/><line fill="none" stroke="#000000" stroke-linecap="round" stroke-linejoin="round" stroke-dasharray="1.8184,1.8184" x1="24.985" y1="90.876" x2="42.258" y2="91.138"/><path fill="none" stroke="#000000" stroke-linecap="round" stroke-linejoin="round" d="M43.167,91.152l1,0.015     c0.252-0.272,0.105-0.564-0.189-0.871"/><path fill="none" stroke="#000000" stroke-linecap="round" stroke-linejoin="round" stroke-dasharray="2.0189,2.0189" d="     M42.528,88.895c-0.011-0.019-0.022-0.039-0.032-0.058c-0.373-0.715-0.294-1.126-0.153-1.829c0.125-0.624,0.636-1.092,0.703-1.464     c0.085-0.471-0.329-1.102-0.215-1.541c0.204-0.784,0.714-0.842,1.137-1.5c0.621-0.964,0.993-2.457,1.041-3.542     c0.062-1.402-0.375-2.825-0.178-4.296C45.047,73.04,45.969,71.608,46,70c0.056-2.891-0.795-7.354,0.959-9.995     c0.512-0.771,1.161-0.83,1.544-1.505c0.366-0.645,0.106-1.604,0.285-2.333c0.179-0.731,0.736-1.232,1.046-1.663     c0.545-0.758,0.977-1.614,1.5-2.471c0.848-1.388,1.672-2.599,2.466-4.041c0.857-1.557,0.005-2.955,0.866-4.617     c1.062-2.051,0.79-3.124,1.139-5.053c0.238-1.316-0.759-2.915-0.271-4.155c0.605-1.538,3.1-2.428,4.475-2.546     c0.737-0.063,0.981,0.36,1.789-0.239c0.795-0.588,0.596-1.667,1.366-2.019c0.895-0.408,1.496,0.641,2.629-0.363     c0.202-0.179,0.375-0.371,0.519-0.574"/><path fill="none" stroke="#000000" stroke-linecap="round" stroke-linejoin="round" d="M66.738,27.521     c0.085-0.31,0.122-0.641,0.112-0.991c0.363-0.042,0.669-0.185,0.907-0.395"/><path fill="none" stroke="#000000" stroke-linecap="round" stroke-linejoin="round" d="M68.121,25.666     c0.147-0.287,0.215-0.623,0.188-0.974c-0.308,0.017-0.747-0.188-0.971-0.18c0.205-0.245,0.478-0.458,0.742-0.668"/><path fill="none" stroke="#000000" stroke-linecap="round" stroke-linejoin="round" d="M68.459,23.527     c0.27-0.247,0.479-0.509,0.511-0.832c-0.224-0.086-0.423-0.385-0.598-0.778"/><path fill="none" stroke="#000000" stroke-linecap="round" stroke-linejoin="round" stroke-dasharray="2.0063,2.0063" d="     M67.769,20.004c-0.089-0.345-0.165-0.645-0.227-0.837c-0.713-2.207,0.36-2.638,1.259-4.496c0.511-1.054,0.85-3.009,1.073-4.134     c0.181-0.915-0.205-2.6-0.541-2.87L23.168,8.146"/><polyline fill="none" stroke="#000000" stroke-linecap="round" stroke-linejoin="round" points="22.167,8.157 21.167,8.167      21.53,9.099    "/><path fill="none" stroke="#000000" stroke-linecap="round" stroke-linejoin="round" stroke-dasharray="2.0542,2.0542" d="     M21.677,10.974c-0.361,0.442-0.889,0.824-1.056,1.313c-0.508,1.496,0.266,1.008,0.68,1.913c0.424,0.926,0.22,1.349,0.125,2.134     c-0.25,2.072-1.205,3.735-1.088,5.666c0.077,1.284,0.742,2.247,1.255,3.226"/></g></g></g><text x="0" y="115" fill="#000000" font-size="5px" font-weight="bold" font-family="'Helvetica Neue', Helvetica, Arial-Unicode, Arial, Sans-serif">Created by Linseed Studio</text><text x="0" y="120" fill="#000000" font-size="5px" font-weight="bold" font-family="'Helvetica Neue', Helvetica, Arial-Unicode, Arial, Sans-serif">from the Noun Project</text></svg>