<svg xmlns="http://www.w3.org/2000/svg" viewBox="0 0 128 160" x="0px" y="0px"><g><path d="M105.048,46.025c-.008,0-.015.007-.023.007l.03-.022c.127-.082.417-.216.32-.238-.014.007.015-.082.053-.142a2.258,2.258,0,0,0,.059-.335c.023-.291.008-.686-.007-1.162l-.008-.4h-.007l-.022.03-.008.007-.119.127-.008.007-.014.008-.038.03a2.814,2.814,0,0,1-.38.208,2.138,2.138,0,0,1-.253.067c-.074.015-.134.03-.2.037a7.037,7.037,0,0,1,.372.85,7.157,7.157,0,0,1,.231.923v.008ZM96.235,13.531a.721.721,0,0,0-.1.052.264.264,0,0,1-.045.045l-.052.052-.03.059a1.229,1.229,0,0,1-.5.44,1.176,1.176,0,0,1-1.266.1c-.522-.246-1.11.67-1.244,1.058a1.159,1.159,0,0,1-1.207.812,1.287,1.287,0,0,1-.4-.03,3.1,3.1,0,0,0-2.429.38,10.329,10.329,0,0,1,4.537,4.663.091.091,0,0,0,.022-.037,1.936,1.936,0,0,1,.8-.73,1.48,1.48,0,0,1,.2-.067,3.819,3.819,0,0,1,.722-1.855,3.62,3.62,0,0,1,2.123-1.378c-.1-1.23-.379-2.429-.543-3.651a.555.555,0,0,1-.157.008h-.208a.061.061,0,0,1-.03.007C96.406,13.464,96.243,13.531,96.235,13.531Zm25.648,7.2c0-.015.008-.074.008-.074l.037-.224a2.045,2.045,0,0,0-.261-1.616,12.277,12.277,0,0,0-1.631-1.728l-.857-.835.946-.752a2.01,2.01,0,0,0,.686-.872.667.667,0,0,0-.015-.432,1.291,1.291,0,0,0-.35-.469,2.3,2.3,0,0,0-1.312-.544,2.009,2.009,0,0,0-2.041,1.3l-.439.961-.738-.514a2.118,2.118,0,0,0-1.43-.209,2.809,2.809,0,0,0-1.825.991c-.127.194-.216.313-.305.29s-.157-.141-.172-.394a1.919,1.919,0,0,1,.432-1.125,3.351,3.351,0,0,1,1.512-1.058,3.608,3.608,0,0,1,1.155-.238,3.3,3.3,0,0,1,.536.022,3.281,3.281,0,0,1,.388-.6,1.042,1.042,0,0,0,0-.209,1.987,1.987,0,0,0-.589-1.08,3.092,3.092,0,0,0-.648-.551,1.645,1.645,0,0,0-.715-.306L113,10.38l.686-1.259a2.944,2.944,0,0,0,.394-1.006,1.049,1.049,0,0,0-.029-.305c-.015-.06-.03-.157-.053-.254a.1.1,0,0,1-.044-.022l-.023-.03-.037-.052c-.022-.037-.045-.082-.067-.112a1.431,1.431,0,0,0-.76-.558,1.549,1.549,0,0,0-.275-.067l-.112-.023-.052-.007-.023-.008a1.288,1.288,0,0,0-.156-.014c-.261-.03-.514-.03-.767-.038s-.388.015-.619.023l-.409.082-.1.014-.052.015c0-.015-.053.015-.053.015a4.891,4.891,0,0,0-1.072.738,4.278,4.278,0,0,1-.827.514,2.994,2.994,0,0,1-1.11.268c-.35,0-.648-.045-.738-.045-.067-.007-.081.008-.126-.007-.023.022-.008-.015-.075.007l-.29.164c-.008,0-.1.082-.149.112l-.194.127a.549.549,0,0,1-.1.119c-.1.074-.09.164-.157.246a1.574,1.574,0,0,0-.059.372,10.613,10.613,0,0,1-.09,1.907l-.134.618-.424-.149c-.857-.3-1.364-.5-1.341-.685.007-.127.3-.246.8-.291-.052-.245-.119-.514-.186-.849a1.18,1.18,0,0,1-.454-.022,3.046,3.046,0,0,0-2.146.425,18.045,18.045,0,0,1,2.25,8.194,2.205,2.205,0,0,1,1.237.477,1.565,1.565,0,0,1,.253.23l.1.12.06.059c.007.015.074.1.074.1l.015.015c.082.134.142.2.239.372a3.2,3.2,0,0,1,.394,1.207,4.215,4.215,0,0,1-.313,2.034,12.662,12.662,0,0,1-.722,1.46,9.919,9.919,0,0,0-.574,1.17l-.015.037a1.957,1.957,0,0,1,.462.283,1.5,1.5,0,0,1,.142.119,1.624,1.624,0,0,1,.223.231,2.216,2.216,0,0,1,.261.395,2.739,2.739,0,0,0,.35.663l.112.074a.431.431,0,0,0,.082.045c.03-.007-.008.015.074.03a1.8,1.8,0,0,0,.224.044,2.413,2.413,0,0,1,.365.1,1.309,1.309,0,0,1,.678.529,1.919,1.919,0,0,1,.275.559l.045.134c.03.1.022.089.037.134.015.075.023.142.038.209a3.2,3.2,0,0,1,.044.536,2.2,2.2,0,0,1-.238.849,1.927,1.927,0,0,1-.767.79.837.837,0,0,1-.246.089,1.831,1.831,0,0,1-.283,1.192,2.127,2.127,0,0,1-.254.313,3.408,3.408,0,0,1,1.043,1.237c.254.536.268.879.172.923s-.321-.193-.678-.566a3.659,3.659,0,0,0-1.669-1.02l-1.184-.3,1.095-.686c.4-.253.678-.752.521-1.02l-.022-.052-.052-.142-.254.037a4.215,4.215,0,0,1-.543.045L104,31.61l.008-.7a1.5,1.5,0,0,0-.127-.8.732.732,0,0,0-.521-.313,2.062,2.062,0,0,0-1.416.4,2.174,2.174,0,0,0-.663.8c-.1.276-.149.469-.238.462s-.179-.149-.231-.477a1.969,1.969,0,0,1,.551-1.415,2.669,2.669,0,0,1,2.1-.9,1.848,1.848,0,0,1,1.423.753,1.907,1.907,0,0,1,.328.842l.149-.023a1.779,1.779,0,0,1,.283,0,1.017,1.017,0,0,1,.409.127,1,1,0,0,1,.306.268c.052.082.1.164.156.253.052.127.09.239.127.358l.015.03a3.174,3.174,0,0,0,.313-.835,1.346,1.346,0,0,0,0-.514c-.038-.082-.038-.126-.082-.246l-.082-.193c-.008-.015-.03-.082-.03-.075l-.052-.059c-.119-.239-.231-.3-.261-.268h-.141c-.045,0-.187-.015-.291-.023a2.9,2.9,0,0,1-.447-.112.807.807,0,0,1-.171-.067l-.127-.059a2.711,2.711,0,0,1-1.043-1.162.53.53,0,0,0-.089-.105.56.56,0,0,0-.1-.074.716.716,0,0,0-.313-.112,1.622,1.622,0,0,1-.522-.164,1.1,1.1,0,0,1-.313-.238,1.233,1.233,0,0,1-.223-.395,1.671,1.671,0,0,1-.06-.313v-.208a4.226,4.226,0,0,1,.09-.514l.111-.373a9.319,9.319,0,0,1,.6-1.46c.328-.685,1-1.78.663-2.57-.342-.819-.946-.283-1.586-.141a2.215,2.215,0,0,1-2.421-.649c-.224-.26-.351-.461-.477-.633-.067-.1-.112-.134-.164-.208-.067-.09-.045-.045-.06-.09-.007-.007,0-.007-.007-.022l-.075-.045-.074-.052a.23.23,0,0,0-.052-.037.556.556,0,0,0-.075-.03.007.007,0,0,0-.007-.007l-.037-.008a2.4,2.4,0,0,0-.3-.1,1.179,1.179,0,0,1-.753-.1,2.046,2.046,0,0,0-1.84,2.116l-.059,1.244-1.088-.462c-.067-.037-.045-.037-.06-.052s-.1.037-.186.134a2.251,2.251,0,0,0-.41.812,2.778,2.778,0,0,0,.068,1.6,10.9,10.9,0,0,1,.327,1.252c.03.3,0,.469-.082.5a.086.086,0,0,1-.044-.008c-.09.082-.269-.022-.507-.134a2.446,2.446,0,0,0-.931-.216,3.019,3.019,0,0,0-.663.053c-.149.029-.3.059-.454.081A.536.536,0,0,0,91.9,26a.348.348,0,0,1-.12.052.769.769,0,0,0-.283.365,4.07,4.07,0,0,0-.134.872l-.082,1.1L90.1,28.139a6.284,6.284,0,0,0-.618-.119l-.007.03-.179.432c-.075.156-.157.327-.253.491l-.03.06-.09.127-.015.029-.074.09-.075.1a2.845,2.845,0,0,1-.216.2,1.741,1.741,0,0,1-.566.342,2.493,2.493,0,0,1-.491.142,3.394,3.394,0,0,1-.857.037c-.03,0-.164-.007-.164-.007s.305,1.2.305,1.2l-1,.045a2.413,2.413,0,0,0-1.475.514.99.99,0,0,0-.246.35c-.03.052-.007.1-.022.156.037.052.015.127.074.194a2.642,2.642,0,0,0,.7.656c.216.156.336.3.321.409s-.187.179-.5.2a2.094,2.094,0,0,1-1.356-.424,1.919,1.919,0,0,1-.41-.432,1.826,1.826,0,0,1-.238-.686,2.161,2.161,0,0,1,.387-1.445c.373-.544,1.11-.7,1.453-1.169.126-.172.082-.559.223-.783a1.6,1.6,0,0,1,.767-.6c.224-.082,1.364-.313,1.349-.619-.023-.26-.663-.171-.835-.238a9.317,9.317,0,0,1-1.668-1.132c-2.213-1.52-4.462-2.988-6.787-4.321-.029-.008-.067-.015-.1-.022h-.157l-.126.074c-.038.03-.112.067-.112.082-.008.03-.03.037-.052.082a.317.317,0,0,0-.052.209,1.245,1.245,0,0,0,.1.387,1.889,1.889,0,0,0,.686.827l3.747,2.16L77.09,25.6h-.074a2.521,2.521,0,0,0-1.155.126c-.059.045-.052.015-.089.09a1.187,1.187,0,0,0-.03.41l.022.149c-.007.007,0,.037,0,.044l-.007-.007.007.015.023.082.044.193c.015.052.023.045.03.075a1.182,1.182,0,0,0,.2.372,3.093,3.093,0,0,0,.79.686c.611.379,1.214.625,1.624.834s.655.372.633.521-.283.261-.782.3a5.318,5.318,0,0,1-2.108-.283,3.965,3.965,0,0,1-1.431-.827,15.069,15.069,0,0,0-2.152.157,1.688,1.688,0,0,0-.224.059,1.328,1.328,0,0,1-.112.306c0,.3.038.752.075,1.192l.074.938-1,.015a10.357,10.357,0,0,1-1.512-.111c-.433-.053-.865-.112-1.267-.135l.067.09,1.393,1.884-2.317-.126a13.526,13.526,0,0,1-2.093-.343,4.79,4.79,0,0,0-1.557-.149c-.3.09-.29.06-.432.373a1.538,1.538,0,0,0-.059.208c-.015.067-.03.172-.045.239a1.451,1.451,0,0,0,.387.2,9.519,9.519,0,0,1,.864.4,3.351,3.351,0,0,1,.522.365,2.225,2.225,0,0,1,.477.6,2.193,2.193,0,0,1,.253.708,4.758,4.758,0,0,1,.022.648l.008.991-1.006-.015a1.677,1.677,0,0,0-.425.052,1.022,1.022,0,0,0,.2.283,2.356,2.356,0,0,0,.543.35l1.378.678-1.095.8a1.312,1.312,0,0,0-.379,1.445,1.878,1.878,0,0,0,.782,1.1,2.433,2.433,0,0,1,.521-.194l.06-.015.067-.022h.03l.119-.023c.074-.015.149-.022.223-.037.3-.045.574-.082.827-.119,1.013-.171,1.632-.209,1.706-.015s-.4.588-1.326,1.073c-.231.111-.5.223-.79.35-.074.03-.149.059-.231.089l-.111.052a.072.072,0,0,1-.023.008l-.052.03a.958.958,0,0,0-.283.186.164.164,0,0,0,.03.015,1.615,1.615,0,0,0,.372.171l1.237.484-1.013,1.11a.738.738,0,0,0-.1.924.512.512,0,0,1,.075.1c.029.022.074.037.1.059a.113.113,0,0,0,.105.053c.015.007.037.014.052.022l.037.015.03.007h.03v.119c0,.008.372,0,.521,0a1.348,1.348,0,0,1,.306-.1,7.651,7.651,0,0,0,3-1.744l.216-.193,1.341.424c.022.008.022.015.014.045.023.008.038.015.045.045a.368.368,0,0,1,.119.059,1.858,1.858,0,0,1,.194.03,3.322,3.322,0,0,0,1-.082,2.757,2.757,0,0,0,1.453-.789c.141-.164.261-.321.372-.477a3.4,3.4,0,0,1-.707-.939,2.4,2.4,0,0,1-.283-1.423c.067-.327.208-.454.32-.469.134-.015.246.171.395.395a5.98,5.98,0,0,0,.655.73,2.675,2.675,0,0,0,1.162.655.862.862,0,0,0,.522-.014.976.976,0,0,0,.365-.313l.648-.812.857.678a1.81,1.81,0,0,0,.961.342,2.1,2.1,0,0,0,1.519-.439.649.649,0,0,0,.216-.417c.023-.09-.015-.2,0-.306a2.56,2.56,0,0,1-.089-.342l-.32-1.528,1.154.343a1.8,1.8,0,0,0,1.259.075c.3-.142.5-.365.663-.306.075.03.127.112.149.261a1.1,1.1,0,0,1-.134.64,1.749,1.749,0,0,1-.849.731c-.023.007-.045.007-.067.014a1.538,1.538,0,0,1,.067.328,2.478,2.478,0,0,1-.492,1.751,3.154,3.154,0,0,1-1.475,1.073,4.744,4.744,0,0,1-.64.178,6.028,6.028,0,0,0,.081,1.863,3.371,3.371,0,0,0,.075.335.163.163,0,0,1,.067.1c.045.044.067.089.119.089a3.011,3.011,0,0,0,1.006.1c.179,0,.35,0,.529-.007l1.43-.022-.372,1.37a2.279,2.279,0,0,0,.126,1.848,1.636,1.636,0,0,0,.551.454,1.832,1.832,0,0,0,.723.134,3.956,3.956,0,0,0,1.274-.29c.32-.142.566-.194.67-.1s.067.328-.149.708a2.961,2.961,0,0,1-1.5,1.117,2.992,2.992,0,0,1-1.453.089,3.059,3.059,0,0,1-1.564-.856,3.391,3.391,0,0,1-.842-1.751A3.085,3.085,0,0,1,83,48.729a3.287,3.287,0,0,1-1.162-.276,30.554,30.554,0,0,1-5.722,3.025c.053.052.112.1.172.156a3.149,3.149,0,0,0,2.644.753,4.3,4.3,0,0,0,.835-.164l1.124-.321.276,1.051a4.055,4.055,0,0,0,.522,1.2,3.2,3.2,0,0,0,.849.834,4.219,4.219,0,0,0,2.063.678c1.334.1,2.228-.231,2.369.03.134.186-.551,1.065-2.279,1.393a4.965,4.965,0,0,1-3.092-.454c-.052-.03-.1-.067-.164-.1.663,3.523-1.706,7.479-3.322,10.481a.785.785,0,0,1-1.348,0,13.42,13.42,0,0,1,.581-12.6c-.179-.037-.358-.082-.567-.141-.238-.075-.327-.134-.484-.194a2.828,2.828,0,0,1-.566-.335,5.771,5.771,0,0,1-.782-.678,4.378,4.378,0,0,1-.663-.819c-.015-.023-.03-.06-.052-.09a44.32,44.32,0,0,1-13.551,2.019A.769.769,0,0,1,60.039,53a.743.743,0,0,1,.179-.335A30.045,30.045,0,0,1,66.11,47.3a1.769,1.769,0,0,1-.171-.164c-.1-.142-.2-.283-.3-.425a2.652,2.652,0,0,1-.291-1.922,1.72,1.72,0,0,1,.224-.611,1.738,1.738,0,0,1-.4-.685,1.5,1.5,0,0,1,.142-1.184,1.671,1.671,0,0,1-.2-.134,1.1,1.1,0,0,1-.321.1,55.241,55.241,0,0,1-10.25.693A1.949,1.949,0,0,0,55.89,45.63a.791.791,0,0,1,.186,1.43c-.47.246-.35.648-.261,1.043a.753.753,0,0,1-.276.76.726.726,0,0,1-.67.417,1.075,1.075,0,0,0-.574.052.406.406,0,0,0-.171.164,1.625,1.625,0,0,0-.149.984.782.782,0,0,1-.782.782.722.722,0,0,1-.313-.067,4.791,4.791,0,0,0-3.695,1.192,16.4,16.4,0,0,1,8.2,5.3,1.367,1.367,0,0,1,.432-.06,2.777,2.777,0,0,1,.871.171c.194.067.365.134.529.194a7.918,7.918,0,0,1-.171-1.065,2.56,2.56,0,0,1,.015-.671,1.6,1.6,0,0,1,.38-.8,1.54,1.54,0,0,1,.715-.387,2.771,2.771,0,0,1,.6-.06l.216.008.052.007H61.1a.317.317,0,0,1,.037.008l.112.022c.156.037.312.06.454.1a3.357,3.357,0,0,1,2.071,1.684c.06.149.112.283.149.4a2.174,2.174,0,0,1,.03.275c.007.149-.015.239-.06.253s-.127-.029-.223-.141a1.986,1.986,0,0,1-.164-.224c-.075-.067-.157-.149-.231-.23-.4-.418-1.617-1.207-2.213-1.066-.685.157-.484,1.043-.313,1.55.03.074.053.111.075.171.037.089.074.157.119.291l.067.208a2.443,2.443,0,0,1,.03.35,1.088,1.088,0,0,1-.112.455.979.979,0,0,1-.268.357,1.569,1.569,0,0,1-.521.313l-.06.023-.022.014h-.008l-.179.03-.081.008-.038.007h-.1a1.584,1.584,0,0,1-.193-.022c-.164-.023-.194-.037-.261-.045l-.179-.052-.3-.089c-.015-.008-.03-.008-.045-.015l.313.789-1.4.045c-.41.007-1.058-.164-1.453.067-.008,0-.015,0-.015.007l-.03-.052c-.015.038-.089.067-.126.09h.074a.427.427,0,0,1,.082-.038.176.176,0,0,0-.06.038l-.007.007-.037.008c.007.007-.082.014-.082.007v.007l.1-.007c-.395.328-.365,1.028-.35,1.453a4.025,4.025,0,0,0,.06.5l.134.521a1.373,1.373,0,0,0,.29.507,1.283,1.283,0,0,0,.641.126,5.7,5.7,0,0,1,1.586.254,3.7,3.7,0,0,1,1.446.983l.529.566-.328.544a6.307,6.307,0,0,0,.745-.045c.156-.022.313-.052.454-.082a1.379,1.379,0,0,0,.194-.044c.03-.008.059-.023.067-.023l.022-.007c.015-.008.008-.03.06.082l1.3.335a5.863,5.863,0,0,0,.633,1,1.052,1.052,0,0,0,.611.373,2.857,2.857,0,0,0,.41.022l.164-.015c.007,0,.007,0,.015.008,0-.015.014,0,.022-.015a.434.434,0,0,0,.074-.082l.134-.134a1.161,1.161,0,0,1,.172-.157,2.176,2.176,0,0,1,.417-.283l.1-.059.052-.023.03-.015c.015-.007.179-.067.179-.067s.156-.037.156-.037a2.1,2.1,0,0,1,.745.022A2.3,2.3,0,0,1,67.22,67c.41.179,1.147.842,1.6.73.484-.119.6-.909.715-1.3.26.172.529.343.789.507,1.252.819,1.349-.492,1.349-1.5,0-.961-.142-1.482-.008-1.557.105-.067.544.4.8,1.453A4.214,4.214,0,0,1,72.5,67.4c-.045.119-.09.231-.135.35a2.841,2.841,0,0,1-.245.358,2.173,2.173,0,0,1-.395.32,2.606,2.606,0,0,1-.5.164,2.213,2.213,0,0,1-.812-.067,2.263,2.263,0,0,1-.365.529.935.935,0,0,1-.149.126c0,.067.514,2.2.544,2.421a5.6,5.6,0,0,0,.633,1.937c.663-.447.4-1.586.365-2.235a6.3,6.3,0,0,1,0-.849l.1-1.527,1.4.641a5.658,5.658,0,0,0,3.4.573c.715-.163,1.028-.849,1.318-.782.127.023.231.209.231.6a1.977,1.977,0,0,1-.834,1.43,3.6,3.6,0,0,1-1.989.656,25.338,25.338,0,0,1,6.518,5.527c.112-.908.194-1.825.246-2.741A1.539,1.539,0,0,1,80.5,74.37a3.379,3.379,0,0,1-.35-.388,1.935,1.935,0,0,1-.864.335,1.562,1.562,0,0,1-1.3-.551,3.466,3.466,0,0,1-.254-.417,1.324,1.324,0,0,1-.082-.305c-.022-.172-.007-.283.06-.321s.171,0,.306.105c.067.044.141.134.23.193a2.559,2.559,0,0,1,.261.164.832.832,0,0,0,.611.09,1.936,1.936,0,0,0,.685-.574l.492-.589.492.656c.089.119.178.238.268.365a3.9,3.9,0,0,0,.29.305c.41.246.09.313.432-.014a1.566,1.566,0,0,0,.105-.194c.052-1.706.037-3.434.007-5.185A3.186,3.186,0,0,1,80.167,69a2.063,2.063,0,0,1-1.311-.2c-.216-.164-.3-.321-.268-.44s.193-.186.439-.246a4.363,4.363,0,0,0,.723-.365,2.56,2.56,0,0,0,.767-.834,2.508,2.508,0,0,0,.387-1.267l-.022-1.221,1.3.26c.551.112,1.1.254,1.505.306a1.3,1.3,0,0,0,.656-.082c.089-.089.193-.112.305-.216l.156-.157.082-.074.03-.022c.008-.008.015-.008.015-.015a2.759,2.759,0,0,0,.283-.4,1.244,1.244,0,0,0,.157-.305,4.658,4.658,0,0,0,.26-.767c.261-1.021.194-1.714.47-1.855.238-.142.931.544,1.035,1.944a4.151,4.151,0,0,1-.06,1.155,3.081,3.081,0,0,1-.208.715,3.319,3.319,0,0,1-.283.588l-.023.038a.677.677,0,0,1-.052.074l-.015.015-.052.075-.119.149-.253.3a1.671,1.671,0,0,1-.283.26c1.758,1.87,2.83,5.967,3.017,7.546a14.267,14.267,0,0,1,.082,1.982,2.218,2.218,0,0,0,1.81-.752.652.652,0,0,1,.238-.157,23.047,23.047,0,0,1-1.8-8.313.761.761,0,0,1,.06-.3,1.558,1.558,0,0,1-.283-.313,2.188,2.188,0,0,1-.41-1.714c.09-.372.2-.558.335-.558s.269.179.41.462c.06.149.186.29.268.462a1.807,1.807,0,0,0,.4.387.669.669,0,0,0,.47.1.906.906,0,0,0,.514-.223,1.137,1.137,0,0,0,.357-.514,1.646,1.646,0,0,0-.022-.73l-.395-1.848,1.989.708c.216.074.357.164.529.112a1.533,1.533,0,0,0,.722-.462,1,1,0,0,0,.164-.179l.216-.313c.008-.022.023-.052.023-.052l.059-.112c.045-.074.052-.149.09-.216a2,2,0,0,0-.3-1.676c-.663-1.073-1.4-1.736-1.207-2,.082-.112.335-.127.767.022a.029.029,0,0,0,.015.007,20.623,20.623,0,0,1-1.751-9.118.342.342,0,0,0,.015-.081,2.332,2.332,0,0,1-.61-.373l-.135-.127-.141-.171a1.315,1.315,0,0,1-.231-.4,1.685,1.685,0,0,1-.1-.909l.029-.171.008-.03c-.045-.008-.1-.008-.164-.015a9.288,9.288,0,0,1-1.237-.082,2.314,2.314,0,0,1-.849-.32l-.112-.082-.059-.045-.082-.067-.052-.052L88.2,45.5a1.89,1.89,0,0,1-.26-.358,1.12,1.12,0,0,1-.164-.432,1.328,1.328,0,0,1-.06-.357l-.022-.3v-.045c.022-.32.477-.968.462-1.169-.023-.336-.283-.351-.552-.537a1.2,1.2,0,0,1-.424-.566,1.515,1.515,0,0,1,.059-1.05l.067-.149.038-.1.044-.082c.06-.112.12-.224.179-.328a3.322,3.322,0,0,1,.857-.9,2.907,2.907,0,0,1,1.549-.581c.358-.008.537.074.551.141.015.082-.178.157-.476.3a3.732,3.732,0,0,0-1.058.8,2.7,2.7,0,0,0-.492.745c-.022.067-.052.134-.074.209l-.023.037-.007.015-.037.082c-.008.037-.015.052-.015.06s0,.134.015.141c.082.037.171.216.26.253a1.749,1.749,0,0,1,.485.291,1.459,1.459,0,0,1,.409.581l.053.164.022.082c.007.03-.067.03-.067.03l-.067.141v.022l.082.1a2.159,2.159,0,0,1,.007.224c-.045.186-.052.238-.074.328l-.075.208a2.679,2.679,0,0,0-.112.343c-.022.059.082.082.068.119,0,.022.1.022.1.03a.454.454,0,0,1-.1.007h-.068l.015.149c.008.067.015.134.03.134.015.06.015.023.082.1l.142.127.022.015.1.067c-.022-.038.067.007.179.015.231.029.559-.008,1.006-.008a2.454,2.454,0,0,1,.834.1,1.725,1.725,0,0,1,.931.678,1.611,1.611,0,0,1,.246.529,1.714,1.714,0,0,1,.022.507l-.022.179-.022.111-.008.038A.564.564,0,0,0,93,46.74a1.63,1.63,0,0,0,.551-.112l.805-.29.432.834A3.133,3.133,0,0,0,95.8,48.2a.974.974,0,0,0,.186.082.491.491,0,0,0,.022-.06l.641-1.139.953.655c.559.388,1.081.827,1.513,1.11a3.029,3.029,0,0,0,1.393.469l.275.038.291.007a2.068,2.068,0,0,0,.447-.03,1.655,1.655,0,0,0,.76-.275,1.07,1.07,0,0,0,.275-.239c.037-.052.082-.1.119-.141l.134-.224a2.676,2.676,0,0,0,.231-.782A4.293,4.293,0,0,0,102,44.222l-1.319-1.177,1.609-.477a3.325,3.325,0,0,1,.887-.126c.209,0,.417-.008.618-.008.112,0,.224-.007.306-.007a.212.212,0,0,0-.023-.06,1.09,1.09,0,0,0-.342-.395l-1.14-.6.886-.782a1.636,1.636,0,0,0,.574-1.11c-.022-.372.045-.357-.611-.834a1.8,1.8,0,0,1-.41-.492l-.044-.067c-.015-.029-.045-.1-.045-.1l-.007-.022-.03-.089c-.015-.067-.037-.112-.06-.2a3.679,3.679,0,0,1-.089-.887,1.515,1.515,0,0,0-.224-.938c-.841-1.133-1.735-1.349-1.683-1.55.015-.074.253-.1.7-.03a3.5,3.5,0,0,1,.775.3,4.057,4.057,0,0,1,.476.291c.149.119.254.193.455.38a2.423,2.423,0,0,1,.655,1.437,3.544,3.544,0,0,0,.112.567c.127.29.1.223.253.335a3.63,3.63,0,0,1,.79.573,1.841,1.841,0,0,1,.253.35l.052.1.023.052.045.1.037.105.03.089c.007.03.014.067.014.067l.015.082a2.628,2.628,0,0,1,.045.328A3.1,3.1,0,0,1,105.212,41a3.359,3.359,0,0,1,.394.5,1.67,1.67,0,0,1,.194.4,1.541,1.541,0,0,1,.1.485,1.429,1.429,0,0,1-.037.6c-.007.022-.022.045-.03.067l.768.022a7.057,7.057,0,0,0,1.043.008c.1-.008.119-.037.186-.037.022-.03.059-.015.089-.053a1.231,1.231,0,0,0,.239-.29l.141-.261c.052-.1.127-.261.149-.313a3.5,3.5,0,0,0,.194-.558,2.83,2.83,0,0,0,.134-.991,1.011,1.011,0,0,0-.03-.224c-.156.038-.305.053-.447.082a5.664,5.664,0,0,1-.752-.037c-.872-.141-1.267-.41-1.252-.559.023-.186.507-.231,1.229-.372.179-.037.365-.1.559-.157.007,0,.015-.014.022-.014l-.327-.485,1.028-.134c.119,0,.186-.432.208-.782l.1-1.192,1.184.633a6.5,6.5,0,0,0,1.729.648,1.184,1.184,0,0,0,.216.038,1,1,0,0,1,.156-.2l.075-1.252,1.385.291a1.4,1.4,0,0,0,.283.015,1.347,1.347,0,0,0,.41-.1c.015-.015.03-.015.052-.022a1.882,1.882,0,0,0,.157-.1.963.963,0,0,1,.1-.12c.052-.022.1-.111.156-.2a1.83,1.83,0,0,0,.157-.238,1.183,1.183,0,0,1,.1-.171l.052-.09.067-.141.1-.231c-.015-.425-.082-.254-.246-.552l-.157-.447-.171-.372a3.2,3.2,0,0,1-.149-.566,2.375,2.375,0,0,1-.007-.32l.015-.075V32.9l.007-.156.03-.306c.022-.156.044-.313.067-.462a.189.189,0,0,1,0-.067c-.008-.007.007-.007,0-.022a.443.443,0,0,1-.037-.089,1.458,1.458,0,0,0-.1-.12,2.393,2.393,0,0,0-.313-.335l-.09-.1-.022-.022-.022-.015-.142-.1a3.191,3.191,0,0,0-1.318-.581,11.652,11.652,0,0,0-2.473-.179c-.619-.007-1.006-.022-1.036-.179-.03-.134.246-.38.857-.633a6.755,6.755,0,0,1,2.831-.514,4.515,4.515,0,0,1,2.123.611l.283.171.067.045.082.067.1.082a3.483,3.483,0,0,1,.44.387c.089.09.171.172.261.276.082.119.164.246.238.372a3.443,3.443,0,0,1,.186.492c.03.164.038.328.052.484.015.276-.186.835-.1,1.065.3.775.975-.2.961-.648-.015-.685-.3-1.333-.254-2.048l.06-.939,1.073.119a1.939,1.939,0,0,0,.819-.022c.022-.045,0,0-.015-.015a.862.862,0,0,0,.022-.2,5.177,5.177,0,0,0-.908-2.22s-.82-1.192-.842-1.229a9.719,9.719,0,0,0,1.393-.395c.35-.082,1.11-.134,1.3-.506.209-.425-.425-1.118-.827-1.177a2.18,2.18,0,0,0-1,.216l-1.6.685c.038-.112.261-.946.276-1.013a1.53,1.53,0,0,0,.015-1.162c-.469-.768-2.049.253-2.57.566a12.421,12.421,0,0,0-1.185.819c-.253.194-.409.343-.506.306s-.127-.254.03-.641a4.433,4.433,0,0,1,.968-1.356,6.4,6.4,0,0,1,2.205-1.445,3.1,3.1,0,0,1,.939-.171,1.85,1.85,0,0,1,1.251.439,2,2,0,0,1,.537.85,3,3,0,0,1,.752-.082c.209.022.417.052.618.089a4.046,4.046,0,0,1,.619.253l.134.09a1.4,1.4,0,0,0,.335-.3,2.751,2.751,0,0,0,.357-.633l.067-.164.075-.254.037-.134Zm2-1.355a4.446,4.446,0,0,1-.172,1.452l-.089.328-.022.074-.023.068-.015.037-.052.126-.1.254-.164.313a4.013,4.013,0,0,1-.79,1.02,2.631,2.631,0,0,1-.439.306c.037.089.074.171.112.26l.111.283.023.075.029.141.023.112.045.216.022.1c.007.045.007.135.015.2a2.184,2.184,0,0,1-.112.856,2.321,2.321,0,0,1-.961,1.252,4.363,4.363,0,0,1-.395.223c.06.127.119.253.172.388a5,5,0,0,1,.387,1.84,2.393,2.393,0,0,1-.3,1.2,1.742,1.742,0,0,1-.462.559,2.431,2.431,0,0,1-.6.335,2.952,2.952,0,0,1-.738.134c0,.067.008.127.008.194a3.861,3.861,0,0,1-.045.812,2.387,2.387,0,0,1-.119.439l-.09.209-.052.1-.022.052-.075.119c-.022.023-.119.134-.119.134a1.38,1.38,0,0,1-.126.142,2.933,2.933,0,0,1-.365.3,3.81,3.81,0,0,1-.611.32c-.119.045-.231.082-.343.119a2.635,2.635,0,0,1,.157.939l-.015.246-.008.126v.038c-.007.022-.015.067-.037.156-.008.015-.022.052-.022.052l-.1.306-.052.149-.09.208-.193.4a2.941,2.941,0,0,1-.3.461,2.094,2.094,0,0,1-.358.447,3.368,3.368,0,0,1-.507.44l-.186.119c-.1.052-.208.1-.32.149a3.248,3.248,0,0,1-.708.209c1.013,1.475,1.818,3.076,2.742,4.611a36.794,36.794,0,0,1,3.314,6.5,1.123,1.123,0,0,1-1.378,1.37c-3.873-1.586-6.942-4-10.272-6.443-.045-.038-.082-.075-.127-.112-.127.074-.261.141-.387.208a3.775,3.775,0,0,1-.656.149,3.892,3.892,0,0,1-.4.03,3.56,3.56,0,0,1-.052.4,2.509,2.509,0,0,1-1,1.646,1.517,1.517,0,0,1-.522.276,1.715,1.715,0,0,1,.1.588c7.651,2.839,13.014,9.126,17.417,15.868a1.126,1.126,0,0,1-.671,1.646c-5.438.939-10.95-2.525-15.949-4.865.4.961.775,1.93,1.11,2.9l.187.358a.552.552,0,0,1-.06.03c.156.469.313.938.454,1.415,1.669,5.706,1.319,11.83,2.191,17.692.208,1.378-1.863,1.989-2.138.663a72.263,72.263,0,0,1-10.72-17.334c-.514-1.2-1.095-2.414-1.691-3.651L96,63.2c-.067.111-.209.29-.313.432a3.357,3.357,0,0,1-1.974,1.221c-.127.015-.246.023-.373.03,2.973,2,4.388,5.274,5.6,8.567a.09.09,0,0,0,.045-.008l.149.537c.119.32.231.64.35.961a60.683,60.683,0,0,1,3.881,15.807.791.791,0,0,1-1.341.552c-3.709-4.343-7.874-9.312-10.436-14.78a3.4,3.4,0,0,1-2.7,1.006.834.834,0,0,1-.127-.03,20.461,20.461,0,0,1-1.616,5.535,12.868,12.868,0,0,1,4.276,5.49c1.549,3.225,3.389,6.287,5.036,9.468.275.536-.194,1.43-.887,1.147-4.7-1.966-8.716-4.872-12.738-7.933a32.9,32.9,0,0,0-3.151,7.293.793.793,0,0,1-1.513,0,14.417,14.417,0,0,1-.275-7.7,4.171,4.171,0,0,1-2.391.618c-.008.172-.03.335-.038.484.008.164-.171.321-.171.477v.209l.179.089.059.194c-.037.261-.022.506-.059.752a3.437,3.437,0,0,1-.2.79c-.09.268-.172.521-.268.767l-.053.134a29.82,29.82,0,0,1,5.595,14.154.781.781,0,0,1-.991.752,21.581,21.581,0,0,1-8.351-4.886,3.969,3.969,0,0,1-2.391,1.1,4.135,4.135,0,0,1-4.306,2.913A20.872,20.872,0,0,1,62.378,120a.789.789,0,0,1-1.356,0,31.1,31.1,0,0,1-3.166-9.215c-3,1.013-8.179.745-8.567-2.734a5.133,5.133,0,0,1-.8.261,4.616,4.616,0,0,1-1.147.1c-.112,0-.157-.015-.239-.015l-.059-.007-.1-.008-.029-.007-.149-.037-.574-.149a3.4,3.4,0,0,1-1.162-.708,3.446,3.446,0,0,1-.752-1.058c-.142-.32-.254-.611-.351-.879a2.613,2.613,0,0,1-.484.022,3.234,3.234,0,0,1-1.542-.469,3.842,3.842,0,0,1-1.251-1.222c-1.162,8.418-4.708,18.847-13.8,20.114-.454.067-1.05-.194-.991-.753a37.743,37.743,0,0,0,.008-6.361,57.318,57.318,0,0,1-.186-8.165l-.082-.06.089-.089c.03-.372.074-.752.127-1.125.089-.663.826-7.039,1.616-6.861-1.214-.268-2.421-.6-3.605-.983a.79.79,0,0,1-.187-1.43c.79-.5,1.542-1.043,2.287-1.594-3.352.551-6.741,1.683-10.012,2.324a56.959,56.959,0,0,1-11,1.229.789.789,0,0,1-.4-1.46c2.16-1.1,3.725-3.524,5.8-4.9,2.056-1.363,4.127-2.823,6.3-4.015.573-.32,1.162-.626,1.75-.916a.673.673,0,0,1-.3-.455,4.211,4.211,0,0,1,.424-2.793c-.99-1.237-.134-3.077,1.088-4.023a3.522,3.522,0,0,1,.022-3.069c-3.382-1.05-6.13-2.853-9.3-4.484a.792.792,0,0,1,.186-1.431,30.268,30.268,0,0,1,12.068-1.691,5.209,5.209,0,0,1,1.349-3.568c-2.727-2.242-4.962-5.483-6.995-7.9a.791.791,0,0,1,.76-1.311c3.292.73,6.473.76,9.453,2.525a22.728,22.728,0,0,1,2.16,1.453C30.51,60.8,32.6,60.7,34.294,61.207a3.263,3.263,0,0,1,2.25-1.8,3.991,3.991,0,0,1,.908-2.614c-2.011-1.095-3.94-2.243-5.728-3.323-.745-.164-.663-1.452.238-1.542,5.051-.477,10.481-1,15.391,0a6.822,6.822,0,0,1,5.117-2.317,2.229,2.229,0,0,1,1.736-1.854,2.506,2.506,0,0,1,.2-1.163,3.373,3.373,0,0,1-1.46-3.7,30.009,30.009,0,0,1-13.6-3.9,1.125,1.125,0,0,1-.038-1.885,1.085,1.085,0,0,1,.321-.23,33.959,33.959,0,0,1,10.309-3.509c3.829-.529,7.681-.3,11.5-.9a.2.2,0,0,1,.008-.068,4.131,4.131,0,0,1,.164-.64,2.911,2.911,0,0,1,.8-1.222,2.959,2.959,0,0,1,1.37-.626,6.47,6.47,0,0,1,2.4.187,1.658,1.658,0,0,1,.082-.35,1.561,1.561,0,0,1,.827-.872,2.34,2.34,0,0,1,.693-.171,4.376,4.376,0,0,1,.961.022c.558.06,1.05.164,1.5.253.06.015.12.023.172.037a127.961,127.961,0,0,1-10.347-8.261c-.879-.782.067-2.108,1.087-1.87,4.589,1.066,9.141,2.25,13.744,3.248a2.258,2.258,0,0,1,.589-1.244l.022-.022A46.6,46.6,0,0,0,68.017,17.7a1.041,1.041,0,0,1-.238-.1,1.112,1.112,0,0,1-.313-2.034c4.328-2.339,12.969-2.6,19.256-.119.015-.008.015-.022.03-.03a5.51,5.51,0,0,1,4.529-1.579,3.3,3.3,0,0,1,3.211-1.743,2.854,2.854,0,0,1,2.168-.864c-.045-1.461-.023-2.928.007-4.381a1.124,1.124,0,0,1,1.907-.789,20.808,20.808,0,0,1,1.848,2.376,5.417,5.417,0,0,1,3.9-.663.4.4,0,0,1,.1.037c.067-.1.126-.2.2-.3l.29-.29a3.259,3.259,0,0,1,.35-.313l.268-.194a3.177,3.177,0,0,1,.552-.253,2.65,2.65,0,0,1,.558-.1c.388-.022.559,0,.7-.015a1.272,1.272,0,0,0,.313-.112,1.182,1.182,0,0,0,.26-.156l.067-.06.127-.1a5.813,5.813,0,0,1,1.535-1.08l.283-.112.037-.007.112-.03.052-.015.1-.015.409-.089a8.663,8.663,0,0,1,1.058-.075c.335.008.671.023.983.06l.239.03.283.052a4.811,4.811,0,0,1,.544.149c.015.007.022.015.037.015a1.084,1.084,0,0,1,.208-.127,6.115,6.115,0,0,1,6.921.909,5.6,5.6,0,0,1,1.237,6.868,3.036,3.036,0,0,1,.64.984,2.785,2.785,0,0,1,.082,1.81,3.435,3.435,0,0,1-.588,1.11,7.2,7.2,0,0,1,1.132,1.46,7.442,7.442,0,0,1,.328.76C123.8,18.842,123.842,19.118,123.88,19.379Zm-3.68-8.053c1.7-2.92-1.773-5.714-4.567-4.924a.28.28,0,0,1,.037.067l.068.119.029.06.015.029.045.112.007.015c.038.142.075.224.12.4a2.741,2.741,0,0,1,.037,1.222,3.3,3.3,0,0,1-.291.819c.105.082.2.157.3.239a4.4,4.4,0,0,1,.8.983,3.114,3.114,0,0,1,.454,1.2,3.84,3.84,0,0,1,1.952-.492A4.465,4.465,0,0,1,120.2,11.326Zm.313,52.279a55.415,55.415,0,0,0-4.172-5.4,5.622,5.622,0,0,1-.916.178,6.535,6.535,0,0,1-1.267.008c-.625-.06-.856-.179-.871-.335s.216-.313.812-.455c.3-.067.685-.141,1.162-.238.082-.015.164-.037.253-.06q-.949-1-1.967-1.929a3.335,3.335,0,0,1-1.028.491,4.9,4.9,0,0,1-1.311.172c-.648-.023-.886-.164-.9-.313s.216-.3.8-.477c.283-.089.656-.194,1.088-.357a3.643,3.643,0,0,0,.506-.261,26.622,26.622,0,0,0-2.92-2.146,5.788,5.788,0,0,1-2.458.857c-.656.03-.9-.067-.924-.223s.186-.336.738-.544c.357-.186.916-.365,1.579-.73a22.546,22.546,0,0,0-4.343-1.915l-.224.283a3.217,3.217,0,0,1-.67.6,3.864,3.864,0,0,1-1.11.514c1.05,2.13,2.153,4.283,3.173,6.473.768.321,1.565.686,2.392,1.1a7.42,7.42,0,0,0-.015-1.818c-.03-.156-.045-.29-.06-.4a1.6,1.6,0,0,1-.052-.283c-.007-.157.015-.261.082-.306s.156-.022.3.082a2.323,2.323,0,0,1,.238.239,3.4,3.4,0,0,1,.246.432,5.075,5.075,0,0,1,.313,2.577c.737.38,1.49.768,2.25,1.155,0-.052-.008-.1-.008-.157-.059-.566-.149-1.028-.216-1.378-.119-.715-.1-1.028.045-1.087s.38.156.715.841a6.331,6.331,0,0,1,.477,1.475,4.865,4.865,0,0,1,.089.857c.738.358,1.475.7,2.213,1.006a9.957,9.957,0,0,0-.589-1.944c-.32-.775-.439-1.11-.3-1.207.112-.082.455.082.991.827a6.276,6.276,0,0,1,.812,1.653,6.523,6.523,0,0,1,.261,1.133A14.894,14.894,0,0,0,120.513,63.605Zm-3.107-15.6c-.588-1.132-1.244-2.234-1.907-3.344-.924-1.542-1.728-3.226-2.793-4.686-.12.007-.231.007-.343.007a3.289,3.289,0,0,1-.782-.141,6.191,6.191,0,0,1-1.3-.551c-.052.067-.112.134-.171.2a2.214,2.214,0,0,1,.35.715,4.079,4.079,0,0,1,.1,1.751,6.142,6.142,0,0,1-.208.893c-.038.09-.06.157-.082.216A69.938,69.938,0,0,0,117.406,48.006Zm-9.237,31.72c-.06-.872-.1-1.751-.156-2.63a3.118,3.118,0,0,1-1-.343,3.6,3.6,0,0,1-.856-.648c-.358-.38-.41-.611-.321-.73s.328-.111.775.082a7.873,7.873,0,0,0,1.341.507c-.052-.879-.112-1.758-.186-2.637a6.57,6.57,0,0,1-1.6-.738,7.157,7.157,0,0,1-1.251-.976c-.559-.558-.663-.879-.567-.99.112-.12.4-.008,1.051.365.32.178.737.424,1.274.707a10.035,10.035,0,0,0,.968.425,31.189,31.189,0,0,0-.6-3.665,4.639,4.639,0,0,1-2.459-.507c-.64-.35-.767-.655-.692-.767.089-.149.357-.1.968.03a7.758,7.758,0,0,0,1.907.164c-.022-.06-.03-.12-.052-.172-.246-.864-.536-1.713-.834-2.555a4.727,4.727,0,0,1-.932-.044,5.924,5.924,0,0,1-1.959-.582,3.5,3.5,0,0,1-.894-.6c-.156-.164-.2-.268-.164-.335s.157-.09.373-.052.521.134.968.246a8.627,8.627,0,0,0,1.766.3c.141.014.3.007.454.007-.193-.507-.395-1.013-.6-1.512a5.886,5.886,0,0,1-1.192-.186,6.206,6.206,0,0,1-1.46-.6c-.678-.395-.849-.678-.774-.8.074-.149.379-.112,1.08.074.35.1.8.216,1.378.32.156.03.328.053.506.075q-.569-1.319-1.169-2.615a7.015,7.015,0,0,1-2.63-.611c-.715-.409-.916-.648-.842-.782s.4-.149,1.1.037c.439.053,1.05.2,1.855.246-.328-.693-.663-1.385-1-2.071l-.4-.022a4.073,4.073,0,0,1-1.006-.231c-.5-.238-.618-.425-.559-.566s.284-.231.716-.216c.186,0,.439-.008.73-.015q-.648-1.331-1.3-2.652c-.007-.022-.014-.037-.022-.06a4.959,4.959,0,0,1-1.952-.752c-.3-.2-.566-.4-.8-.581a2.154,2.154,0,0,1-.692.313,2.475,2.475,0,0,1-1.751-.41,2.858,2.858,0,0,1-.373-.276,19.309,19.309,0,0,0,1.058,5.871c.179-.246.343-.477.484-.686a14.765,14.765,0,0,0,.805-1.288c.186-.328.3-.567.395-.723s.193-.216.275-.2.127.1.157.29a2.467,2.467,0,0,1-.09.917,6.122,6.122,0,0,1-.663,1.556c-.245.433-.566.9-.916,1.423.589,1.565,1.289,3.114,2.012,4.626.007-.022.022-.052.029-.074.157-.425.261-.782.336-1.058.156-.559.275-.79.439-.79.142,0,.3.231.343.872a4.245,4.245,0,0,1-.134,1.3,3.836,3.836,0,0,1-.425.983c.663,1.364,1.319,2.682,1.9,3.941A70.735,70.735,0,0,0,108.169,79.726ZM101.6,18.872a16.474,16.474,0,0,0-2.771-8.835,18.265,18.265,0,0,0,.126,2.4c.209,1.609.581,3.181.671,4.8a1.358,1.358,0,0,1,.156.052l.194.075.044.015.03.007.008.008h.007l.008.007.141.075.067.044.142.09.074.044.112.1a4.057,4.057,0,0,1,.678.723C101.412,18.634,101.517,18.775,101.6,18.872Zm-.09,69.406q-.312-2.18-.834-4.336a5.514,5.514,0,0,1-2.138-.767c-.492-.373-.6-.6-.521-.723s.35-.149.849,0c.35.075.834.216,1.519.335-.216-.819-.454-1.631-.7-2.436-1.415-.111-1.7-.342-1.668-.6.029-.231.238-.417,1.333-.462-.171-.529-.35-1.05-.529-1.572-.067-.186-.134-.372-.2-.566a5.118,5.118,0,0,1-2.853-.626c-.492-.335-.618-.543-.544-.685s.335-.171.834-.052a11.451,11.451,0,0,0,2.19.246c-.141-.432-.29-.864-.439-1.3a6.634,6.634,0,0,1-1.229-.074c-.514-.105-.708-.239-.708-.4s.194-.3.7-.4c.224-.053.522-.09.879-.142-.208-.581-.432-1.169-.678-1.736-.73-.141-1.348-.268-1.854-.387-.559-.164-.991-.32-1.311-.447-.649-.268-.857-.462-.8-.611s.343-.216,1.013-.156c.335.03.752.1,1.3.2.32.037.685.1,1.087.164a11.4,11.4,0,0,0-3.762-4.574,2.5,2.5,0,0,1-.618.454,2.235,2.235,0,0,1-1.117.291C90.909,74.906,96.414,82.229,101.509,88.278ZM91.982,24.392a.773.773,0,0,1-.015-.142,6.127,6.127,0,0,0-1.885-4.216c-.06.35-.119.678-.186.961-.2.8-.4,1.4-.559,1.855-.305.9-.469,1.237-.633,1.214-.142-.007-.253-.41-.134-1.385.052-.492.171-1.118.313-1.892a10.414,10.414,0,0,0,.171-1.639,12.009,12.009,0,0,0-1.6-.984,10.287,10.287,0,0,1,.053,1.14,18.332,18.332,0,0,1-.2,2.4c-.178,1.177-.3,1.616-.461,1.624s-.306-.47-.328-1.669c-.023-.6,0-1.378-.037-2.339a10.481,10.481,0,0,0-.209-1.691,17.5,17.5,0,0,0-2.086-.715,7.116,7.116,0,0,1,.157,1.162,13.663,13.663,0,0,1-.09,2.019c-.119.99-.231,1.355-.387,1.37s-.321-.38-.4-1.378c-.045-.491-.068-1.139-.157-1.929a6.549,6.549,0,0,0-.335-1.55c-.715-.156-1.453-.283-2.19-.387.059.3.111.589.164.849a10.965,10.965,0,0,1,.037,1.729c-.09.856-.224,1.177-.38,1.177s-.3-.321-.417-1.148a20.4,20.4,0,0,0-.551-2.741c-.559-.052-1.118-.089-1.669-.112a4.274,4.274,0,0,1,.32,1.013c.052.6-.044.82-.193.842s-.343-.149-.559-.6c-.112-.223-.313-.491-.514-.849-.09-.127-.194-.283-.3-.432a24.527,24.527,0,0,0-5.371.566c6.086,2.391,11.5,6,16.85,9.788a1.544,1.544,0,0,1,.738-.327,2.446,2.446,0,0,1,.745,0,3.212,3.212,0,0,1,.186-.4,2.422,2.422,0,0,1,1.363-1.087,3.7,3.7,0,0,1,.723-.1Zm2,72.3c-1.1-1.989-2.264-3.948-3.247-6-1.088-2.279-2.138-4.73-4.254-6.213-.365.753-.752,1.5-1.162,2.243l.141-.082c.313.484.6.916.857,1.318q.437.593.782,1.073c.462.663.835,1.169,1.073,1.6.477.864.566,1.236.432,1.318s-.454-.141-1.073-.849c-.305-.358-.737-.812-1.244-1.438-.26-.313-.544-.67-.856-1.058-.2-.283-.41-.6-.634-.931-.394.715-.8,1.438-1.206,2.153A66.278,66.278,0,0,0,93.985,96.7ZM87.266,75.45a9.62,9.62,0,0,0-.328-2.727c-.178-.64-1.534-5.162-2.883-5.6a2.428,2.428,0,0,1-.409,0,.7.7,0,0,0-.2.112c.1,4.909.476,10.146-.976,14.9-.514,1.691-1.185,3.352-1.8,5.013a.949.949,0,0,1-.238.663,18.217,18.217,0,0,0-1.311,7.681,94.281,94.281,0,0,1,4.44-8.686c-.417-1.215-.343-1.669-.075-1.744.187-.052.417.075.7.537.335-.656.655-1.319.953-1.989a6.033,6.033,0,0,1-1.073-2c-.126-.551-.074-.782.075-.834s.35.082.641.5c.208.261.469.656.849,1.162.134-.342.26-.685.387-1.035.216-.626.425-1.267.611-1.93a3.306,3.306,0,0,1-1.579-1.393c-.216-.447-.2-.663-.075-.752s.35-.022.678.238a8.226,8.226,0,0,0,1.252.805c.119-.544.208-1.1.275-1.654a4.544,4.544,0,0,1-2-2.212c-.186-.589-.156-.842-.015-.9s.373.082.7.507A8.819,8.819,0,0,0,87.266,75.45Zm-5.982,4.134-.022-.022c-2.265-2.645-4.619-5.088-7.747-6.6-.03.126-.067.253-.105.365a.028.028,0,0,0-.007.022,21.914,21.914,0,0,0,2.4,3.881c.834,1.125,1.482,2,1.944,2.719a9.2,9.2,0,0,1,.886,1.572c.149.35.172.521.1.559s-.216-.052-.47-.321-.611-.707-1.154-1.341-1.244-1.46-2.131-2.562c-.439-.551-.924-1.177-1.415-1.907-.075-.1-.142-.224-.216-.328a23.068,23.068,0,0,0,6.093,10.154c.1-.254.194-.5.291-.753A27.959,27.959,0,0,0,81.284,79.584Zm-.6-32.248c-.007-.022-.022-.037-.029-.06a4.688,4.688,0,0,1-.194-.6c-.03-.149-.03-.246-.045-.373a5.5,5.5,0,0,1,.06-1.594,5.112,5.112,0,0,1,.149-.588,3.7,3.7,0,0,1-.909-.335,2.413,2.413,0,0,1-.8.312,2.541,2.541,0,0,1-1.594-.23c-.022-.008-.037-.023-.059-.03a4.19,4.19,0,0,1-.2.544c-.09.156-.187.327-.3.491a4.345,4.345,0,0,1-.447.477,3.859,3.859,0,0,1-.567.417c-.081.052-.171.1-.253.149l-.037.022-.1.045-.074.03-.164.074a4.75,4.75,0,0,1-1.572.351c-.164-.008-.328-.015-.5-.038a5.3,5.3,0,0,1-.559-.156c-.03-.015-.06-.037-.089-.052a7.866,7.866,0,0,1-2.846,1.661c.224.156.41.3.551.417.425.395.522.633.432.76s-.342.119-.849-.089a18.756,18.756,0,0,0-2.056-.745,18.534,18.534,0,0,0-2,1.37c.2.06.4.112.573.157a6.6,6.6,0,0,1,1.11.409c.544.321.686.529.611.663s-.328.187-.849.1c-.268-.044-.633-.074-1.088-.164-.238-.037-.506-.089-.8-.141-.179-.052-.38-.1-.581-.164a29.545,29.545,0,0,0-2.2,2.153,43.579,43.579,0,0,0,9.1-1.237,10.114,10.114,0,0,0,1.095-2.287c.208-.64.4-.879.551-.864s.246.3.224,1.028a6.84,6.84,0,0,1-.3,1.438c-.038.082-.082.179-.12.276.373-.12.753-.231,1.125-.365l.015-.038c.045-.074.09-.156.127-.208a2.679,2.679,0,0,1,.261-.261,2.609,2.609,0,0,1,.439-.283,4.324,4.324,0,0,1,.544-.224c.03-.067.059-.134.082-.2.193-.491.328-.864.417-1.154.186-.581.268-.835.439-.85.075,0,.149.06.216.209a1.728,1.728,0,0,1,.127.752,4.026,4.026,0,0,1-.127.954c.358-.067.663-.1.924-.134.157-.075.313-.149.462-.231a3,3,0,0,0,.4-.872,5.609,5.609,0,0,0,.172-.819c.059-.425.082-.626.245-.693.075-.03.157-.015.254.082a1.064,1.064,0,0,1,.29.536,2.545,2.545,0,0,1,.052.991C79.854,47.872,80.271,47.612,80.688,47.336ZM77.575,64.782c1.661-2.979,3.739-7.024,1.542-9.8A.853.853,0,0,1,79,54.77,11.234,11.234,0,0,0,77.575,64.782Zm1.273,43.534a26.484,26.484,0,0,0-2.287-7.24c-.663-.112-1.124-.172-1.467-.231-.484-.053-.708-.179-.73-.328s.149-.313.7-.462a4.648,4.648,0,0,1,.946-.082,28.457,28.457,0,0,0-1.728-2.89c-.864.156-1.468.238-1.9.3-.581.082-.849.022-.908-.127s.119-.343.685-.641a8.578,8.578,0,0,1,1.445-.476,23.541,23.541,0,0,0-1.914-2.272,9.506,9.506,0,0,0-1.989.081c-.507.075-.738.105-.835-.044-.074-.1.015-.395.574-.7a3.26,3.26,0,0,1,1.184-.373,14.272,14.272,0,0,0-5.7-3.3l.022.089.022-.029a29.266,29.266,0,0,1,3.077,3.285,10.325,10.325,0,0,1,1.482,2.54,8.806,8.806,0,0,1,.291.909,5.243,5.243,0,0,1,.074.633c.023.328-.015.477-.1.492s-.178-.1-.327-.388q-.1-.2-.246-.536c-.1-.216-.261-.469-.41-.767a14.174,14.174,0,0,0-1.572-2.235A29.3,29.3,0,0,0,64.9,91.078l-.007.008-.023.007c2.153,3.561,2.868,8.135,5.669,11.256a2.258,2.258,0,0,1,.2-.439c.336-.6.619-.723.738-.648.142.082.112.342,0,.923-.045.261-.1.6-.127,1,.693.67,1.431,1.333,2.213,1.966,0-.059-.015-.126-.015-.186a4.5,4.5,0,0,1,.112-1.117c.126-.529.26-.715.424-.723s.291.216.373.752c.03.254.067.582.119,1a1.692,1.692,0,0,0,.506,1.072l-.178.216A17.827,17.827,0,0,0,78.848,108.316ZM75.191,89.827c1.892.335,2.987-1.095,3.374-2.771a24.867,24.867,0,0,1-6.987-11.941,1.041,1.041,0,0,1-.343.014,1.282,1.282,0,0,1-.693-.26.461.461,0,0,1-.082-.067c-.283,3.225-1.318,6.518-1.862,9.535-.127.715-1.088.7-1.43.186-2.876-4.343-3.375-9.818-3.449-14.936a3,3,0,0,1-1.676-.909,5.638,5.638,0,0,1-.529-.663c-.149.03-.306.052-.462.082a6.95,6.95,0,0,1-1.319.052,3.24,3.24,0,0,1-.782-.126,1.8,1.8,0,0,1-.484-.194,1.572,1.572,0,0,1-.276-.179,1.822,1.822,0,0,1-.283-.305,1.164,1.164,0,0,1-.2-.395,14.292,14.292,0,0,1-2.22,1.326,3.524,3.524,0,0,1,.47.276,5.132,5.132,0,0,1,1.489,1.832c.1.2.172.395.254.589a6.123,6.123,0,0,1,.64-.514,2.546,2.546,0,0,1,1.9-.507,2.234,2.234,0,0,1,1.058.507c.186.178.26.313.216.387s-.194.089-.425.067a3.912,3.912,0,0,0-.894-.007,1.772,1.772,0,0,0-1,.6c-.365.373-.775.939-1.3,1.55l-.9,1.013-.514-1.386a5.2,5.2,0,0,0-1.669-2.473A1.419,1.419,0,0,0,54.266,70,1.652,1.652,0,0,0,54,70a.378.378,0,0,1-.089.007,1.815,1.815,0,0,0-.223.06,1.884,1.884,0,0,0-1.11.819,4.115,4.115,0,0,0-.492,2.064,21.044,21.044,0,0,0,.1,2.376l.156,1.989-1.609-1.028a2.367,2.367,0,0,0-1.006-.4c-.1-.008-.134-.008-.186.022a.639.639,0,0,0-.2.253,1.8,1.8,0,0,0-.082.194l-.037.164-.008.082s.015.007.015.015c0,.149-.089.29-.052.417a1.688,1.688,0,0,1-.007.2,2.038,2.038,0,0,1,.074.2,1.673,1.673,0,0,0,.179.388,10.945,10.945,0,0,0,.894,1.192c.238.3.343.5.276.588s-.283.06-.649-.082a4.49,4.49,0,0,1-1.452-.968,2.53,2.53,0,0,1-.41-.522c-.059-.1-.126-.208-.186-.32l-.134-.38a2.956,2.956,0,0,1-.1-.864V76.4l.007-.082.015-.089.015-.164a3.209,3.209,0,0,1,.112-.477,2.33,2.33,0,0,1,.573-.968,2.009,2.009,0,0,1,1.207-.551,2.431,2.431,0,0,1,.469.007c-.03-.38-.059-.767-.059-1.177a7.432,7.432,0,0,1,.149-1.527,4.58,4.58,0,0,1,.625-1.624c.008-.015.023-.022.03-.037a23.844,23.844,0,0,1-3.993.313C41.818,70,37.49,68.2,32.662,67.665a1.146,1.146,0,0,0-.141.127,1.3,1.3,0,0,0-.343.8c.008.119.052.134.052.119s.1.037.276.1l1.259.566-.581,1.043a2.907,2.907,0,0,0-.387,1.222,2.5,2.5,0,0,0,.238,1.072c.179.4.425.716.544.969.059.052.119.1.179.149a.92.92,0,0,1,.2.268.258.258,0,0,0,.067-.015c.335-.015.543.045.611.179s-.038.335-.269.581c-.074.112-.171.246-.283.4a3.567,3.567,0,0,0-.313.522,2.5,2.5,0,0,0,.261,2.808,3.285,3.285,0,0,0,.551.514l1.528,1.2-1.684.648a3.05,3.05,0,0,0-1.17.768,1.316,1.316,0,0,0-.387.834c-.03.6.343,1.147.149,1.348-.082.1-.261.1-.551,0a1.978,1.978,0,0,1-.931-.983,2.206,2.206,0,0,1-.179-1.043,2.9,2.9,0,0,1,.342-1.162,4.208,4.208,0,0,1,.641-.819c-.059-.075-.127-.157-.179-.239a47.071,47.071,0,0,1-11.025-.73,2.078,2.078,0,0,0,.015,2.347.051.051,0,0,1,.015.03.841.841,0,0,1-.357,1.3c-.723.268-1.662,1.609-.894,2.228a.623.623,0,0,1,.178.826.7.7,0,0,1-.119.433,2.562,2.562,0,0,0-.417,1.884.708.708,0,0,1-.007.306,19.889,19.889,0,0,1,9.185-1.96,3.727,3.727,0,0,1,.566-3.4c.238-.261.432-.372.551-.32s.156.268.134.618c.008.32-.037.775.015,1.289a2.49,2.49,0,0,0,.574,1.445,2.411,2.411,0,0,0,.7.514,4.217,4.217,0,0,0,1.02.313l1,.2-.179,1.035c-.075.462-.164.939-.216,1.371a4.777,4.777,0,0,0,0,1.348c.827-.439,1.564-.871,2.168-1.162a3.847,3.847,0,0,1,1.348-.469,16.437,16.437,0,0,1,5.654-2.466c-.238-.216-.477-.439-.693-.655-1.639-1.654-1.877-3.822-2.868-5.84a52.853,52.853,0,0,1-2.644-6.087c-.455-.67.543-1.557,1.244-.953,4.618,4.03,11.688,5.907,14.042,11.964a2.777,2.777,0,0,1,.566-.418,3.968,3.968,0,0,1,2.13-.417,2.677,2.677,0,0,1,1.356.41c.283.2.32.387.291.5-.045.134-.268.149-.522.209-.208.052-.6.126-1,.253a3.91,3.91,0,0,0-1.267.611,1.43,1.43,0,0,1-.112.1.527.527,0,0,1-.059.089c-.015.015-.015.03-.008.038h.03l.023.022c0,.022.1.112.134.186l.663,1.349-1.3.35a1.452,1.452,0,0,0-.589.283,1.276,1.276,0,0,0-.372.611l-.022.1-.015.053-.008.022-.082.007.008.276a1.9,1.9,0,0,0,.037.268c.037.365.417.715.887.961.938.469,1.773.6,1.78.916.022.261-.738.723-2.22.529a4.361,4.361,0,0,1-.752-.223.424.424,0,0,1,.022.1,1.657,1.657,0,0,0,.4.7,1.3,1.3,0,0,0,.678.343l1,.216L52.6,94.639c-.03.142-.06.283-.1.417-.112.82.112,1.095.73,1.312a2.527,2.527,0,0,0,1.78-.246,10.058,10.058,0,0,0,.753-1.237l.253-.469.581.216a.255.255,0,0,1,.2-.075c.067.015.127.082.164.216l.037.015c.12.045.239.142.313.119.045.03.067-.007.082-.007.023.015.038-.037.052-.037a1.108,1.108,0,0,0,.343-.619l.328-1.34,1.251.8c1.408.894,2.086.1,2.138-1.3a3.837,3.837,0,0,0-.35-1.124c-.551-1.133-1.05-1.907-.819-2.123.67-.626,2.093,1.43,2.585,1.743-.09-.268.022-.514-.03-.8-.015-.075-.045-.134-.067-.209a4.227,4.227,0,0,0-.365-.574l-.283-.432a6.594,6.594,0,0,1-.313-.655c-.075-.216-.082-.328-.134-.5a2.093,2.093,0,0,1,.007-.984,3.086,3.086,0,0,1,.671-1.184,4.1,4.1,0,0,0,.387-.514.718.718,0,0,0,.052-.119.015.015,0,0,0,.015.015c.015.015-.015-.12-.015-.172a1.418,1.418,0,0,0-.454-.767,4.936,4.936,0,0,0-.909-.723c-1.319-.811-2.294-.975-2.332-1.266-.067-.29,1.17-.715,2.965-.1a5.2,5.2,0,0,1,1.423.737,3.046,3.046,0,0,1,1.251,1.825,1.494,1.494,0,0,1,.045.246,2.808,2.808,0,0,1,0,.44,2.486,2.486,0,0,1-.179.715,4.529,4.529,0,0,1-.6.976,2.175,2.175,0,0,0-.253.38,2.28,2.28,0,0,0,.119.4.63.63,0,0,1,.075.119.8.8,0,0,1,.141-.007,15.833,15.833,0,0,1,8.925,5.266c.193.12.387.261.6.4-.127-.12,0-1.565-.127-1.9a6.068,6.068,0,0,0-1.3-1.8c-.276-.305-.537-.663-.79-1.005l-1.117-1.5,1.952-.164a2.923,2.923,0,0,0,1.206-.253.75.75,0,0,0,.373-.611,2.239,2.239,0,0,0-.2-1.058,2.669,2.669,0,0,0-.254-.507,2.838,2.838,0,0,0-.29-.454A6.03,6.03,0,0,0,71.95,83c-.357-.246-.6-.4-.566-.544.037-.126.283-.231.775-.208a3.835,3.835,0,0,1,1.981.916,4.25,4.25,0,0,1,.529.514,4.03,4.03,0,0,1,.485.655,3.689,3.689,0,0,1,.6,1.863,2.861,2.861,0,0,1-.238,1.229,1.994,1.994,0,0,1-.365.581,2.447,2.447,0,0,1-.507.462,2.516,2.516,0,0,1-.44.268,6.732,6.732,0,0,1,.827,1.1A1.179,1.179,0,0,1,75.191,89.827ZM73.969,27.141l-.037-.09-.03-.1-.045-.164-.059-.254a3.046,3.046,0,0,1,0-1.251,2.244,2.244,0,0,1,.536-.983c-3.077-.671-6.138-1.416-9.2-2.161,2.123,1.758,4.291,3.457,6.548,5.051a2.623,2.623,0,0,1,.8-.149A10.846,10.846,0,0,1,73.969,27.141ZM70.118,104.2c-.1-.119-.224-.238-.328-.357-.179-.216-.343-.44-.514-.663a3.816,3.816,0,0,1-1.617-.008,4.221,4.221,0,0,1-.677-.2c-.03.052-.067.1-.105.157a1.021,1.021,0,0,1-.2.208.932.932,0,0,1-.283.171.976.976,0,0,1-.648.023,1.453,1.453,0,0,1-.685-.477,3.255,3.255,0,0,1-.306-.492,2.13,2.13,0,0,1-.216-.759c0-.172.03-.284.1-.313.142-.052.365.253.752.633a1.471,1.471,0,0,0,.552.387v-.022s.007,0,.015-.037a1.767,1.767,0,0,0,.134-.447l.186-.783.737.41a3.32,3.32,0,0,0,.909.313,4.019,4.019,0,0,0,.581.082c-1.817-2.95-2.793-6.28-4.477-9.3a1.686,1.686,0,0,1-.216.238c-.134.142-.261.261-.387.38a3.157,3.157,0,0,1-.261.931,3.8,3.8,0,0,1-.276.477l-.216.3-.014.015-.068.082-.007.008-.015.007-.045.052-.1.09-.209.186a2.588,2.588,0,0,1-.484.32,2.551,2.551,0,0,1-.835.276,34.529,34.529,0,0,1,3.494,11.68.215.215,0,0,1,.067,0,2.548,2.548,0,0,0,2.92-1.981.714.714,0,0,1,.1-.328.793.793,0,0,1,.946-.611A1.968,1.968,0,0,0,70.118,104.2ZM67.51,81.953c.954-4.075,2.377-8.686.82-12.537l-.127-.03a8.536,8.536,0,0,1-1.184-.529,4.575,4.575,0,0,0-.477-.208.216.216,0,0,0-.1-.03,1.168,1.168,0,0,0-.1.074,4.717,4.717,0,0,1-.514.529,2.07,2.07,0,0,1-.551.268C65.335,73.7,65.663,78.146,67.51,81.953Zm-.99-13.364.03-.015-.038.007-.044.015-.015.015A.228.228,0,0,0,66.52,68.589ZM63.786,39.447a2.678,2.678,0,0,1,.164-.693,2.863,2.863,0,0,1-.678-.618c-9.148.052-12-.171-12.009-.477,0-.29,2.749-.551,11.51-.64a1.644,1.644,0,0,1,.044-.73,1.993,1.993,0,0,1,.246-.544,2.186,2.186,0,0,1,.388-.4c.014-.008.022-.015.037-.023-.1-.037-.2-.074-.313-.119a3.472,3.472,0,0,1-1.035-.581,90.639,90.639,0,0,1-9.23.737,29.561,29.561,0,0,0-10.548,2.712c6.48,3.091,14.5,3.151,21.461,2.108A3.366,3.366,0,0,1,63.786,39.447Zm-2.138,78.322c2.741-6.838.961-14.9-2.257-21.23a46.767,46.767,0,0,0,.9,7.039c.365,2.1.626,3.569.715,4.85.045.641.1,1.184.09,1.639s-.03.812-.053,1.1c-.044.566-.1.812-.186.812s-.156-.224-.246-.775c-.044-.275-.1-.6-.141-1.043s-.164-.916-.253-1.534c-.187-1.244-.522-2.764-.946-4.857a44.6,44.6,0,0,1-1-7.181,2.453,2.453,0,0,1-.246.089c-.014.007-.037.007-.052.015C58.571,103.839,58.586,111.49,61.648,117.769Zm-2-59.609a.023.023,0,0,1,.015.007c-.015-.015-.029-.052-.044-.052l-.008-.007-.052.022Zm-2.063,51.073c-.648-4.075-.819-8.262-1.17-12.4a3.63,3.63,0,0,1-.365.425,3.792,3.792,0,0,1-3.188,1.05,3.027,3.027,0,0,1-2-1.184,3.089,3.089,0,0,1-.5-2.168c-.067-.037-.134-.089-.2-.134a14.8,14.8,0,0,1-7.382,5.371c-.134.067-.261.127-.4.194a2.228,2.228,0,0,0-.5.342c-.023.023-.038.045-.06.067l-.03.105-.067.208a2.031,2.031,0,0,0,.194,1.192,2.271,2.271,0,0,0,.968,1.043,1.144,1.144,0,0,0,1.155-.015l1.05-.551.447,1.058c.254.611.447,1.229.648,1.654a1.865,1.865,0,0,0,2.936.387,1.113,1.113,0,0,0,.432-.708l.223-1.05a1.842,1.842,0,0,1-2-1.408,3.247,3.247,0,0,1,.327-2.093c.5-1.036,1.2-1.4,1.3-1.259s-.246.633-.462,1.564A2.936,2.936,0,0,0,48.9,102.4a.711.711,0,0,0,.924.44c.067-.022.089-.082.141-.134l.6-.663.44.544a2.371,2.371,0,0,0,1.266.856.952.952,0,0,0,.954-.35c.432-.6.469-1.244.655-1.229.082,0,.157.134.224.417a2.126,2.126,0,0,1-.149,1.237,1.85,1.85,0,0,1-.648.752,1.992,1.992,0,0,1-1.148.291,2.9,2.9,0,0,1-1.609-.693c-.015.007-.022.015-.037.015l.618.737a12.8,12.8,0,0,0,1.624,1.624,2.328,2.328,0,0,0,1.155.619c.186.015.425-.38.529-.611.119-.246.208-.4.313-.395.089,0,.186.156.231.477a1.621,1.621,0,0,1-.023.618,1.384,1.384,0,0,1-.588.857,1.789,1.789,0,0,1-1.289.134,4.594,4.594,0,0,1-1.14-.462,11.11,11.11,0,0,1-1.065-.7.587.587,0,0,1-.052.089.866.866,0,0,1,.022.373C50.31,110.372,55.77,109.992,57.588,109.233ZM56.6,65.862a3.66,3.66,0,0,1-.775-.111,2.477,2.477,0,0,1-.975-.477,3.357,3.357,0,0,1-1.014-1.654l-.074-.3-.03-.157-.022-.074-.022-.119-.008-.045c-.015-.1-.015-.194-.03-.3a52.256,52.256,0,0,0-11.39,1.11A47.8,47.8,0,0,0,34.935,66.5c3.031.685,5.974,1.788,9.118,1.9C48.381,68.559,52.954,68.425,56.6,65.862Zm-1.065-7.151a2.368,2.368,0,0,1,.566-.149c-5.371-6.444-13.967-6.019-21.685-5.3,5.818,3.456,12.8,7.129,19.473,7.181a4.4,4.4,0,0,1,.313-.626c.1-.141.208-.276.32-.4a2.556,2.556,0,0,1,.238-.216l.112-.1.007-.015L54.988,59H55v-.008l.014-.007.045-.023.09-.052A2.417,2.417,0,0,1,55.532,58.711ZM50.094,86.989c.037-.03.082-.052.119-.082a.8.8,0,0,1-.194-.335c-1.489-5.505-7.248-7.71-11.755-10.7.5,1.162,1.043,2.3,1.595,3.457.655,1.363.916,3.3,1.78,4.492a13.771,13.771,0,0,0,6.831,4.76A18.231,18.231,0,0,1,46.7,86.944c-.365-.41-.722-.79-1.042-1.169l-.872-1.1a31.115,31.115,0,0,1-2.309-3.516c-.246-.462-.455-.857-.619-1.192s-.26-.618-.342-.834c-.164-.44-.187-.648-.119-.686s.23.112.506.477c.134.186.3.432.5.73.216.3.462.663.745,1.088.589.849,1.371,1.952,2.451,3.292.276.336.566.678.879,1.051.3.357.663.715,1.021,1.1.342.4.774.738,1.184,1.133a5.962,5.962,0,0,0,.708.573A2.964,2.964,0,0,1,50.094,86.989ZM49.14,93.6a3.757,3.757,0,0,1-.3-.894,93.445,93.445,0,0,0-9.669,1.9c-2.026.537-2.838.656-2.891.507s.671-.521,2.667-1.266a53,53,0,0,1,9.833-2.265,5.774,5.774,0,0,1,.209-1.311,12.931,12.931,0,0,1-4.976-2.138c-.023-.007-.037.007-.06,0a7.022,7.022,0,0,0-2.629.261c.119.052.245.1.357.156a7.181,7.181,0,0,1,1.453.827,2.368,2.368,0,0,1,.633.663c.1.164.112.268.06.328s-.164.059-.336.007-.409-.171-.759-.313-.82-.335-1.431-.558c-.447-.157-.968-.328-1.586-.552a25.623,25.623,0,0,0-3.695,1.975,9.665,9.665,0,0,1,1.974,1.132c.551.439.7.685.618.819s-.38.119-1.006-.134c-.588-.194-1.445-.655-2.756-1.065-.879.573-1.691,1.14-2.406,1.609a40.291,40.291,0,0,0-3.412,2.63.682.682,0,0,1-.32.275c-.954.805-1.907,1.609-2.913,2.354.931.261,1.877.484,2.823.671a.631.631,0,0,1,.4.074,31.98,31.98,0,0,0,3.263.447,10.934,10.934,0,0,0,2.108-1.721c.253-.26.424-.447.558-.558s.239-.142.306-.112.1.126.074.313a2.122,2.122,0,0,1-.3.819,5.933,5.933,0,0,1-1.08,1.356,25.515,25.515,0,0,0,4.454-.261,7.119,7.119,0,0,0,1.528-2.51c.26-.723.372-1.036.543-1.021.075.008.142.082.194.276a2.468,2.468,0,0,1,.03.924,5.086,5.086,0,0,1-.73,2.07,18.038,18.038,0,0,0,3.2-.961c.38-.543.7-1,.931-1.4a9.11,9.11,0,0,0,.656-1.274c.149-.328.231-.566.313-.722s.171-.224.245-.216.142.082.187.26a2.18,2.18,0,0,1,.022.887,5.363,5.363,0,0,1-.5,1.527A16.187,16.187,0,0,0,49.14,93.6ZM43,61.981c1.818-.313,3.635-.529,5.461-.678a43.616,43.616,0,0,1-9.551-3.747.657.657,0,0,1-.126.12,3.047,3.047,0,0,0-.7,2.488.717.717,0,0,1-.485.707.594.594,0,0,1-.357.075,1.7,1.7,0,0,0-1.728,1.289,1.113,1.113,0,0,1-1.274.6,3.859,3.859,0,0,0-3.77.253,20.834,20.834,0,0,1,2.406,2.57C36.275,64.373,39.315,62.622,43,61.981ZM39.4,100.994l-.7.111a26.371,26.371,0,0,1-3.493.291,52.223,52.223,0,0,1-2.265,8.03c-.819,2.317-1.482,4.1-1.944,5.475-.239.686-.44,1.267-.6,1.751s-.275.879-.387,1.177c-.216.611-.35.864-.432.842s-.082-.3.007-.939c.045-.32.112-.73.209-1.244s.261-1.11.447-1.817c.365-1.423.961-3.256,1.721-5.58a58.543,58.543,0,0,0,2.108-7.7,31.477,31.477,0,0,1-5.021-.491A8.934,8.934,0,0,0,27.7,104.07a8.02,8.02,0,0,1,2.682-.938c.268-.023.484-.03.67-.038a3.4,3.4,0,0,1,.455.1c.223.06.313.134.3.216s-.105.149-.306.216a2.711,2.711,0,0,1-.387.1c-.156.06-.335.119-.559.186a15.127,15.127,0,0,0-3.143,1.594c-.112.663-.194,1.349-.246,2.012.074-.03.156-.06.231-.082a5.806,5.806,0,0,1,1.259-.268c.618-.06.871,0,.923.156s-.149.35-.722.6c-.268.12-.626.276-1.088.47a4.274,4.274,0,0,0-.693.38c-.059,1.177-.067,2.257-.067,3.121.164-.1.328-.179.47-.253a6.622,6.622,0,0,1,1.348-.462c.685-.149.976-.1,1.028.052s-.149.358-.745.685c-.29.164-.663.373-1.147.641a4.97,4.97,0,0,0-.924.693c.03.789.09,1.572.157,2.354.082-.06.171-.112.245-.164a10.958,10.958,0,0,1,1.118-.589c.566-.253.819-.305.924-.178.1.111,0,.394-.485.834-.238.223-.566.477-.975.79a9.225,9.225,0,0,0-.723.6,37.125,37.125,0,0,1,.179,5.378,12.193,12.193,0,0,0,7.434-5.676,10.557,10.557,0,0,1-1.378-2.8c-.209-.79-.194-1.125-.045-1.177s.388.179.775.857c.3.462.656,1.2,1.266,2.085.321-.581.611-1.184.887-1.8q-.995-.917-1.676-1.632a9.9,9.9,0,0,1-1.132-1.437c-.455-.8-.537-1.155-.4-1.237s.447.119,1.028.752c.291.313.723.686,1.229,1.192.4.365.872.79,1.416,1.274.29-.745.551-1.505.789-2.272a12.105,12.105,0,0,1-2.2-3.255c-.328-.812-.358-1.162-.216-1.229s.417.149.9.834c.417.514.954,1.348,1.87,2.391.291-1.087.529-2.175.723-3.255a6.922,6.922,0,0,1-1.9-1.654c-.343-.469-.4-.723-.291-.834s.365-.052.835.253c.365.216.842.618,1.557,1.058C39.158,103.415,39.3,102.163,39.4,100.994Zm-7.9-24.01a3.475,3.475,0,0,1,1.051-2.13,9.676,9.676,0,0,0-4.939-2.183,2.7,2.7,0,0,1,.246.656c.1.491-.008.7-.149.745s-.321-.09-.581-.425a4.18,4.18,0,0,0-1.185-1.17c-.871-.059-1.743-.074-2.615-.067.053.082.112.179.164.261a8.568,8.568,0,0,1,.485.812c.216.44.223.671.1.775s-.335.052-.723-.276a6.8,6.8,0,0,1-.7-.7c-.186-.238-.41-.529-.641-.857-.29,0-.573.008-.856.015-.671.008-1.334.03-2,.06.328.313.589.559.775.752.387.358.492.589.417.73s-.32.149-.857-.074A6.655,6.655,0,0,1,17.7,72.6a25.385,25.385,0,0,0-5.081.894c2.645,1.489,5.185,3.113,8.239,3.747a50.36,50.36,0,0,0,10.675.841A3.4,3.4,0,0,1,31.5,76.984ZM31.21,66.8A.682.682,0,0,1,31.4,66.3a19.714,19.714,0,0,0-1.7-1.855,3.306,3.306,0,0,1-.171.745c-.2.432-.373.551-.522.506s-.246-.246-.26-.641a5.753,5.753,0,0,0-.306-1.728c-.335-.275-.685-.529-1.035-.774v.037a6.257,6.257,0,0,1-.127,1.192c-.119.581-.253.8-.41.8s-.3-.231-.38-.812c-.044-.3-.074-.671-.119-1.133a5.48,5.48,0,0,0-.126-.8,11.237,11.237,0,0,0-1.729-.767c.045.216.082.432.112.626.1.521.194.931.231,1.251.082.641.015.931-.134.984s-.343-.142-.626-.753a10.844,10.844,0,0,1-.477-1.251c-.1-.35-.193-.76-.3-1.229-1.311-.328-2.652-.5-3.985-.7,2.838,3.643,6.257,8.269,10.876,8.381a1.113,1.113,0,0,1,.03-.164A2.538,2.538,0,0,1,31.21,66.8Zm-.328,5.17a.761.761,0,0,1-.037-.127,3.628,3.628,0,0,1,.1-1.49,2.262,2.262,0,0,1-.395-.409,9.287,9.287,0,0,1-5.416-1.691,3.487,3.487,0,0,0-1.043,2.629c.008.015,0,.03,0,.045A18.693,18.693,0,0,1,30.882,71.971ZM31.3,92.4a5.2,5.2,0,0,1-.5-1.527A5.257,5.257,0,0,0,28.707,91a18.743,18.743,0,0,0-2.444.8c-1.549.656-3.039,1.073-4.335,1.512-2.622.85-4.663,1.49-6.213,1.959-3.114.939-4.335,1.2-4.395,1.051s1.073-.663,4.142-1.8c1.542-.574,3.553-1.289,6.123-2.183,1.289-.461,2.727-.886,4.276-1.556a19.464,19.464,0,0,1,2.585-.865,6.588,6.588,0,0,1,2.295-.186,5.25,5.25,0,0,1,.037-.611c.03-.223.067-.432.1-.64a4.915,4.915,0,0,1-.6-.291c-.119-.074-.238-.164-.35-.246a.958.958,0,0,1-.142.008c-5.229-.626-10.093,1.564-14.384,4.365-2.354,1.542-5.252,2.943-7.166,5.028-.358.395-.686.775-1.021,1.14a70.42,70.42,0,0,0,10.921-1.654c3.344-.722,6.756-1.9,10.175-2.115C29.3,93.939,30.294,93.157,31.3,92.4Z"/><path d="M116.922,18.284a1.328,1.328,0,0,1,.007.618c-.1.3-.208.439-.29.417s-.134-.186-.179-.425a.811.811,0,0,0-.492-.573,1.891,1.891,0,0,0-2.108,1.415l-.253,1.557L112.7,19.96l-.126-.187a1.493,1.493,0,0,0-1.215-.834,1.062,1.062,0,0,0-.849.752,3.615,3.615,0,0,0-.186,1.036c.007.3-.023.477-.1.5s-.209-.1-.365-.365a2.387,2.387,0,0,1-.209-1.378,2.085,2.085,0,0,1,.41-.983,1.8,1.8,0,0,1,1.132-.708,2.084,2.084,0,0,1,1.43.283,3.863,3.863,0,0,1,.47.38,1.813,1.813,0,0,1,.141-.194,3,3,0,0,1,1.028-.737,2.342,2.342,0,0,1,2.116.029A1.279,1.279,0,0,1,116.922,18.284Z"/><path d="M112.356,12.473c.052.224-.835.38-1.528,1.177l-.685.79-.127-1.162a1.353,1.353,0,0,0-.134-.559.421.421,0,0,0-.305-.231,1.08,1.08,0,0,0-.983.663l-.075.156-.514,1.081-.6-.969a.432.432,0,0,1-.045-.059,5.268,5.268,0,0,0-.2.633c-.164.685-.26,1.3-.372,1.832l-.186.872-.477-.626c-.507-.663-.767-1.11-.663-1.222.059-.067.253.008.521.172a9.306,9.306,0,0,1,.075-1.237,3.61,3.61,0,0,1,.4-1.333,1.118,1.118,0,0,1,.492-.44.946.946,0,0,1,.849.06c.007,0,.007,0,.015.007a2.075,2.075,0,0,1,2.034-.737,1.544,1.544,0,0,1,1.028.946,1.6,1.6,0,0,1,.059.231,3.133,3.133,0,0,1,.8-.194C112.132,12.324,112.341,12.384,112.356,12.473Z"/><path d="M100.3,39.455a2.165,2.165,0,0,1,.149,1.042,1.76,1.76,0,0,1-.081.462l-.06.216-.03.112V41.3l-.037.082-.008.015-.022.045a2.747,2.747,0,0,1-1.147,1.326,2.655,2.655,0,0,1-1.6.245,2.954,2.954,0,0,1-.618-.164,1.667,1.667,0,0,1-.261.529,1.343,1.343,0,0,1-.894.529.864.864,0,0,1-.611-.149c-.119-.082-.156-.141-.134-.186s.1-.06.209-.074a.964.964,0,0,0,.417-.09.905.905,0,0,0,.395-.432.931.931,0,0,0,.022-.708L95.542,41.2l1.118.529a2.061,2.061,0,0,0,1.832.022c.112-.1.261-.186.321-.3a1.761,1.761,0,0,0,.29-.536l.015-.045.007-.015.008-.03.03-.141A.789.789,0,0,0,99.2,40.4a.81.81,0,0,0-.06-.455,2.3,2.3,0,0,0-1.043-.909l-.916-.5.9-.566a1.484,1.484,0,0,0,.6-.566.623.623,0,0,0-.127-.6,1.8,1.8,0,0,0-1.288-.715,1.941,1.941,0,0,0-1.028.231c-.246.186-.4.268-.462.216s-.008-.216.141-.492a1.941,1.941,0,0,1,1.319-.745,2.531,2.531,0,0,1,2.153.842,1.717,1.717,0,0,1,.4,1.6,1.881,1.881,0,0,1-.38.663c.037.029.075.052.119.082A2.453,2.453,0,0,1,100.3,39.455Z"/><path d="M98.023,26.4c.2.089.291.179.276.231-.038.134-.477.059-.976.38a5.113,5.113,0,0,0-1.565,2.123L95.3,30.135l-.514-1.05c-1.1-2.183-1.766,1.125-1.855,1.84,0,.008-.2,1.728-.2,1.728l-.865-1.423c-.141-.238-.6-.253-.983.135a1.435,1.435,0,0,0-.231,1.11c.134.841.3,1.415.149,1.46-.112.037-.492-.343-.871-1.282a2.025,2.025,0,0,1,.238-2.011l.156-.179a2.409,2.409,0,0,1,.283-.223,2.1,2.1,0,0,1,.663-.283,1.6,1.6,0,0,1,.537-.008,5.148,5.148,0,0,1,.342-1.587,2.055,2.055,0,0,1,.812-.975,1.116,1.116,0,0,1,.313-.149l.082-.03.015-.008.09-.022h.022l.112-.022a1.819,1.819,0,0,1,.678.029,2.278,2.278,0,0,1,1.013.649,3.679,3.679,0,0,1,1.78-1.438A1.523,1.523,0,0,1,98.023,26.4Z"/><path d="M91.281,54.994a1.828,1.828,0,0,1,.209,1.02,1.406,1.406,0,0,1-.715,1.043,2.213,2.213,0,0,1,.581,1.133,1.389,1.389,0,0,1-.127.841,1.84,1.84,0,0,1-.417.574l-.015.015-.067.06-.022.014-.052.038-.1.067a1.486,1.486,0,0,1-.216.134,2.174,2.174,0,0,1-.633.208,2.876,2.876,0,0,1-.969-.044c-1.087-.306-1.52-.85-1.438-.969.1-.164.686.06,1.557.082a2.255,2.255,0,0,0,.633-.082c.105-.03.127-.082.2-.089.037-.008.111-.09.164-.134l.089-.075.022-.022h.008V58.8c.164-.193.193-.312.164-.417a1.435,1.435,0,0,0-.4-.6c-.216-.223-.432-.439-.633-.64l-1.087-1.095,1.564.037a1.676,1.676,0,0,0,.618-.052c.127-.052.164-.082.209-.194a1.491,1.491,0,0,0-.224-.983,5.078,5.078,0,0,0-.491-.686c-.157-.163-.239-.283-.2-.357s.179-.082.41-.037a2.3,2.3,0,0,1,.924.581A2.386,2.386,0,0,1,91.281,54.994Z"/><path d="M80.979,38.4c.015.164-.842.4-2.183.082a4.844,4.844,0,0,1-1.072-.395,2.994,2.994,0,0,1-1.118-.879,2.138,2.138,0,0,1-.447-1.691l.015-.119.008-.052a.8.8,0,0,1,.029-.112l.008-.015.059-.164.067-.163a1.59,1.59,0,0,1,.157-.254,2.641,2.641,0,0,1,.179-.238c.067-.067.134-.119.2-.179a1.723,1.723,0,0,1,.447-.268,2.659,2.659,0,0,1,.864-.186,3.682,3.682,0,0,1-.09-.522,1.309,1.309,0,0,1,.067-.551.824.824,0,0,1,.075-.171.954.954,0,0,1,.142-.172.909.909,0,0,1,.387-.216,1.4,1.4,0,0,1,.395,0,7.385,7.385,0,0,1,.678-1.5c.35-.433.581-.626.663-.559s.014.357-.142.8c-.112.477-.216,1.125-.395,2.041l-.1.522-.589-.2a.025.025,0,0,0-.022-.008,4.3,4.3,0,0,0,.4.969l.708,1.281-1.423-.4a1.715,1.715,0,0,0-1.1.03c-1.169.461-.26,1.646.41,2.078a6.154,6.154,0,0,0,.834.454C80.189,38.129,80.971,38.225,80.979,38.4Z"/><path d="M74.4,59.009a1.435,1.435,0,0,1-.074,1.2,1.507,1.507,0,0,1-.641.514c-.365.157-.574.194-.626.127s.082-.261.343-.521a1.279,1.279,0,0,0,.3-.447.858.858,0,0,0-.119-.514,1.041,1.041,0,0,0-.357-.38c-.12-.052-.149-.045-.313.03l-1.073.521.328-1.207a2.177,2.177,0,0,0-.052-1.3,2.218,2.218,0,0,0-.887-1.118,1.074,1.074,0,0,0-1.08-.074,2.168,2.168,0,0,0-.767.968l-.5,1.013L68.4,56.9a1.665,1.665,0,0,0-.887-.775.654.654,0,0,0-.722.112c-.328.372-.283.9-.432.886-.06.008-.127-.089-.194-.275a1.308,1.308,0,0,1,.067-.961,1.133,1.133,0,0,1,.581-.551,1.517,1.517,0,0,1,.894-.105,2.287,2.287,0,0,1,1,.432,2.549,2.549,0,0,1,.827-.871,1.992,1.992,0,0,1,1.192-.313,2.5,2.5,0,0,1,1.162.357,3.23,3.23,0,0,1,1.505,3.122,1.308,1.308,0,0,1,.41.2,1.918,1.918,0,0,1,.588.812Z"/><path d="M73.977,31.342c.245.067.342.157.342.224s-.149.1-.372.156a5.686,5.686,0,0,0-.842.328,2.513,2.513,0,0,0-.983.8.468.468,0,0,0-.1.447,1.3,1.3,0,0,0,.417.462L73.9,34.888,71.988,34.8a1.9,1.9,0,0,0-.939.149,1.607,1.607,0,0,0-.671.7,1.243,1.243,0,0,0,.008,1.192,1.562,1.562,0,0,0,1.073.506l.752.1-.261.633a1.692,1.692,0,0,0-.149,1.148c.075.245.38.394.678.461.6.127,1.021.082,1.043.217.022.089-.313.372-1.095.432a1.862,1.862,0,0,1-.685-.1,1.341,1.341,0,0,1-.73-.566,1.963,1.963,0,0,1-.239-1.3,2.306,2.306,0,0,1-1.363-.8,2.365,2.365,0,0,1-.164-2.45A2.723,2.723,0,0,1,70.52,33.83a2.363,2.363,0,0,1,.492-.156c-.015-.052-.038-.09-.052-.142a1.506,1.506,0,0,1,.379-1.288,2.927,2.927,0,0,1,1.528-.872A2.468,2.468,0,0,1,73.977,31.342Z"/><path d="M65.894,64.9c.052.052-.082.342-.581.491a1.444,1.444,0,0,1-.946-.089,1.337,1.337,0,0,1-.492-.41,1.985,1.985,0,0,1-.38.179,2.063,2.063,0,0,1-1.244.045,2.264,2.264,0,0,1-1.572-2.131,1.871,1.871,0,0,1,.857-1.587,1.318,1.318,0,0,1,.328-.186,1.786,1.786,0,0,1-.268-.693,1.35,1.35,0,0,1,.685-1.408,1.464,1.464,0,0,1,.9-.149c.179.045.283.1.283.164.03.149-.439.209-.789.559a.6.6,0,0,0-.134.648,1.318,1.318,0,0,0,.73.7l1.527.693-1.751.395c-.149.03-.3.067-.454.1-.112.074-.283.1-.358.193a.65.65,0,0,0-.3.574,1.185,1.185,0,0,0,.2.618,1.139,1.139,0,0,0,.469.388,1.39,1.39,0,0,0,1.162-.231l.819-.484-.022.849a.577.577,0,0,0,.2.484,1,1,0,0,0,.492.223C65.6,64.887,65.827,64.805,65.894,64.9Z"/><path d="M61.767,73.781c.2.082.276.179.261.246-.037.149-.455.141-.686.5a3.955,3.955,0,0,0-.476,2.041l-.03,1.49L59.771,76.9c-.112-.126-.231-.245-.343-.372-.127-.075-.246-.224-.365-.253-.611-.447-1.386.573-1.527,1.221a1.967,1.967,0,0,0-.067.76c.067.2.156.358.089.425-.059.052-.208.067-.447-.1a1.533,1.533,0,0,1-.462-1.185,2.7,2.7,0,0,1,.611-1.7,2.1,2.1,0,0,1,.991-.7,1.885,1.885,0,0,1,1.371.149,1.2,1.2,0,0,1,.275.164,2.643,2.643,0,0,1,.946-1.378A1.1,1.1,0,0,1,61.767,73.781Z"/><path d="M61.037,56.4l.007.164h-.037l.023-.164Z"/><path d="M57.29,89.157l-.968,1.191a1.868,1.868,0,0,0-.358.753.791.791,0,0,0,.03.514c.141.253.544.328.536.477.008.067-.059.141-.223.208a.945.945,0,0,1-.8-.1,1.362,1.362,0,0,1-.581-1.154,1.887,1.887,0,0,1,.029-.41c-.029-.007-.059-.007-.089-.015a1.246,1.246,0,0,1-.469-.231,1.188,1.188,0,0,1-.447-.663,1.764,1.764,0,0,1-.038-.611,3.02,3.02,0,0,1,.276-.894,3.89,3.89,0,0,1,.864-1.139,2.337,2.337,0,0,1,.849-.507c.216-.037.351-.015.395.06s-.03.208-.156.372c-.09.157-.246.358-.41.648a6.1,6.1,0,0,0-.477,1.013,2.347,2.347,0,0,0-.111.552.585.585,0,0,0,.014.178h.008a1.617,1.617,0,0,0,.536,0Z"/><path d="M56.128,60.566V60.6l-.015-.03C56.113,60.566,56.12,60.566,56.128,60.566Z"/><path d="M56.12,60.611l-.074.022h-.015a.016.016,0,0,1,.015-.015Z"/><path d="M56.083,60.521l.03.052a.427.427,0,0,0-.082.038h-.074C55.994,60.588,56.068,60.559,56.083,60.521Z"/><path d="M56.046,60.618a.016.016,0,0,0-.015.015l-.1.007v-.007c0,.007.089,0,.082-.007Z"/><path d="M42.659,74.817c.023.163-.424.372-1.124.245a2.5,2.5,0,0,1-1.177-.536,1.426,1.426,0,0,1-.529-.834,1.394,1.394,0,0,1,.111-.887,1.937,1.937,0,0,1-.439-.6,1.69,1.69,0,0,1-.1-1.251,1.1,1.1,0,0,1,.551-.648c.172-.052.276-.023.328.037s.015.179-.037.313a1.642,1.642,0,0,0-.022.447,1.107,1.107,0,0,0,.774.909l1.028.089-.737,1c-.052.075-.157.142-.179.2a.25.25,0,0,0-.074.157c-.015.03.022.126.119.223a2.614,2.614,0,0,0,.678.537C42.3,74.511,42.645,74.638,42.659,74.817Z"/><path d="M37.05,85.715l-.618.492a2.7,2.7,0,0,0-.909,1.259c-.1.327.067.625-.037.759-.045.06-.164.075-.335-.007a1.043,1.043,0,0,1-.477-.693,2.017,2.017,0,0,1,.149-1.184,3.4,3.4,0,0,1,.3-.529l-.038-.037a2.16,2.16,0,0,1-.275-.358,1.874,1.874,0,0,1-.239-.834,1.9,1.9,0,0,1,.12-.753,2.658,2.658,0,0,1,.327-.536,2.882,2.882,0,0,1,.418-.335.815.815,0,0,1,.312-.1c.179-.03.3-.015.351.052s.015.194-.075.35a1.8,1.8,0,0,0-.164.261,1.6,1.6,0,0,1-.1.261,3.3,3.3,0,0,1-.067.335c.022.119-.022.231.037.342a.858.858,0,0,0,.417.567c.052.037.105.067.157.111Z"/></g><text x="0" y="143" fill="#000000" font-size="5px" font-weight="bold" font-family="'Helvetica Neue', Helvetica, Arial-Unicode, Arial, Sans-serif">Created by Hey Rabbit</text><text x="0" y="148" fill="#000000" font-size="5px" font-weight="bold" font-family="'Helvetica Neue', Helvetica, Arial-Unicode, Arial, Sans-serif">from the Noun Project</text></svg>